<svg xmlns="http://www.w3.org/2000/svg" width="136" height="30"><path fill-rule="evenodd" fill="#4D67AC" d="M135.946 8.867c-.051 1.066-.353 1.955-.908 2.666-.554.711-1.382 1.287-2.482 1.727l2.26 5.865v.19h-3.834l-1.803-5.103h-2.297l-.902 5.103h-3.593l2.565-14.79 5.764.013c1.701.042 3.015.444 3.941 1.206.927.762 1.357 1.803 1.289 3.123zm-3.904-.881c-.292-.309-.751-.473-1.377-.49l-2.628-.013-.66 3.771 2.221.012c.72 0 1.329-.174 1.828-.522.5-.348.804-.841.915-1.477.093-.544-.007-.971-.299-1.281zm-16.002-.503l-.47 2.717h5.929l-.521 2.958h-5.916l-.558 3.199h6.969l-.52 2.958H110.39l2.565-14.79h10.588l-.521 2.958h-6.982zm-10.366.359c-.368-.349-.929-.536-1.682-.562-1.177-.051-2.125.399-2.844 1.35-.719.951-1.13 2.394-1.231 4.33v.887c.025.846.256 1.505.692 1.978.435.473 1.055.714 1.859.723.889.034 1.689-.131 2.4-.495l.444-2.121h-2.767l.469-2.602h6.361l-.952 6.208c-.568.635-1.399 1.128-2.495 1.479-1.096.351-2.364.514-3.802.489-1.295-.017-2.404-.33-3.326-.94-.923-.609-1.594-1.455-2.013-2.539-.419-1.083-.556-2.319-.412-3.707l.076-.774c.178-1.414.607-2.677 1.288-3.79.682-1.113 1.568-1.972 2.66-2.577s2.298-.891 3.618-.857c1.701.034 3.045.476 4.031 1.327.986.85 1.551 2.126 1.695 3.827l-3.415-.012c-.068-.732-.286-1.273-.654-1.622zm-15.901 7.665h-6.449l-1.904 3.808h-4.101L87.196.831h3.44l3.517 18.484h-3.796l-.584-3.808zm-1.511-9.966l-3.415 6.881h4.456l-1.041-6.881zM67.728 7.553c-.368-.317-.853-.48-1.454-.489-.626 0-1.174.142-1.644.426-.47.283-.755.666-.857 1.149-.144.694.377 1.216 1.562 1.567 1.185.352 2.006.625 2.463.819 1.98.821 2.928 2.197 2.843 4.126-.068 1.363-.668 2.438-1.802 3.225-1.135.787-2.573 1.172-4.317 1.155-1.71-.017-3.095-.47-4.158-1.358-1.062-.889-1.584-2.086-1.567-3.593l3.567.025c-.034.754.148 1.31.546 1.67.398.36 1.02.539 1.866.539.626 0 1.17-.139 1.631-.419.462-.279.735-.66.819-1.142.144-.796-.355-1.365-1.498-1.708-1.142-.343-1.913-.59-2.31-.742-2.142-.813-3.157-2.15-3.047-4.012a4.059 4.059 0 0 1 .838-2.323c.516-.677 1.238-1.211 2.164-1.6a7.321 7.321 0 0 1 2.977-.559c1.684.043 3.017.481 3.999 1.314.982.834 1.473 1.949 1.473 3.346l-3.555-.013c.009-.618-.171-1.086-.539-1.403zM52.881 19.315l-4.139-9.382-1.625 9.382h-3.606l2.565-14.79h3.478l4.126 9.395 1.638-9.395h3.58l-2.564 14.79h-3.453zm-14.892-2.818h-5.535l-1.511 2.818h-3.745l8.239-14.79h3.377l3.161 14.79h-3.466l-.52-2.818zm-1.46-7.655l-2.653 4.964h3.592l-.939-4.964zm-9.375 2.691c-.555.711-1.382 1.287-2.482 1.727l2.259 5.865v.19h-3.834l-1.802-5.103h-2.298l-.902 5.103h-3.592l2.564-14.79 5.764.013c1.701.042 3.015.444 3.942 1.206.926.762 1.356 1.803 1.288 3.123-.051 1.066-.353 1.955-.907 2.666zm-2.997-3.547c-.292-.309-.751-.473-1.377-.49l-2.628-.013-.66 3.771 2.222.012c.719 0 1.328-.174 1.828-.522.499-.348.804-.841.914-1.477.093-.544-.007-.971-.299-1.281zM9.59 3.916L6.924 19.315h-3.72L5.87 3.916H.449L.995.831H15.62l-.546 3.085H9.59z"/><path fill-rule="evenodd" opacity=".502" d="M132.868 29.315l-.679-1.86h-2.978l-.669 1.86h-.967l2.715-7.109h.82l2.72 7.109h-.962zm-2.168-5.952l-1.206 3.325h2.417l-1.211-3.325zm-7.628 5.952l-2.632-7.109h1.021l2.021 5.864 2.031-5.864h1.026l-2.637 7.109h-.83zm-6.217-.312c-.429.273-.931.41-1.504.41-.56 0-1.056-.138-1.489-.413-.433-.275-.769-.667-1.008-1.176-.24-.51-.362-1.1-.369-1.77v-.513c0-.684.119-1.288.357-1.812.237-.524.573-.925 1.008-1.203a2.7 2.7 0 0 1 1.492-.418c.569 0 1.071.138 1.506.413.434.275.769.674 1.003 1.196.235.523.352 1.131.352 1.824v.449c0 .697-.117 1.305-.352 1.824-.234.519-.566.915-.996 1.189zm.415-3.472c0-.843-.169-1.49-.508-1.941-.338-.451-.812-.676-1.42-.676-.593 0-1.059.225-1.399.676-.341.451-.516 1.077-.525 1.878v.522c0 .817.171 1.459.515 1.926.343.468.816.701 1.418.701.606 0 1.075-.22 1.407-.662.332-.441.502-1.073.512-1.897v-.527zm-9.393 3.369c-.48.27-1.039.409-1.677.415h-1.968v-7.109h2.007c.618 0 1.165.137 1.641.41.475.273.842.663 1.101 1.167.258.505.389 1.084.393 1.738v.454c0 .671-.13 1.259-.388 1.763a2.73 2.73 0 0 1-1.109 1.162zm.569-3.362c0-.808-.19-1.436-.569-1.884-.379-.448-.917-.675-1.614-.681h-1.093v5.576h.986c.723 0 1.285-.225 1.687-.675.402-.449.603-1.09.603-1.92v-.416zm-10.714-3.332h.943v6.343h3.369v.766h-4.312v-7.109zm-4.381 6.797c-.429.273-.931.41-1.504.41-.56 0-1.056-.138-1.489-.413-.433-.275-.769-.667-1.008-1.176-.239-.51-.362-1.1-.369-1.77v-.513c0-.684.119-1.288.357-1.812.237-.524.573-.925 1.008-1.203a2.7 2.7 0 0 1 1.492-.418c.569 0 1.071.138 1.506.413.435.275.769.674 1.003 1.196.235.523.352 1.131.352 1.824v.449c0 .697-.117 1.305-.352 1.824-.234.519-.566.915-.996 1.189zm.415-3.472c0-.843-.169-1.49-.507-1.941-.339-.451-.813-.676-1.421-.676-.593 0-1.059.225-1.399.676-.341.451-.515 1.077-.525 1.878v.522c0 .817.171 1.459.515 1.926.343.468.816.701 1.418.701.606 0 1.075-.22 1.407-.662.332-.441.503-1.073.512-1.897v-.527zm-8.897 1.016l.088-2.989-2.334 5.757h-.718l-2.329-5.742.093 2.974v2.768h-.938v-7.109h1.211l2.324 5.801 2.325-5.801h1.215v7.109h-.937v-2.768zm-15.017 2.456c-.429.273-.931.41-1.504.41-.56 0-1.056-.138-1.489-.413-.433-.275-.769-.667-1.008-1.176-.239-.51-.362-1.1-.369-1.77v-.513c0-.684.119-1.288.357-1.812.237-.524.573-.925 1.008-1.203a2.7 2.7 0 0 1 1.492-.418c.569 0 1.071.138 1.506.413.435.275.769.674 1.003 1.196.235.523.352 1.131.352 1.824v.449c0 .697-.117 1.305-.352 1.824-.234.519-.566.915-.996 1.189zm.415-3.472c0-.843-.169-1.49-.508-1.941-.338-.451-.812-.676-1.42-.676-.593 0-1.059.225-1.399.676-.341.451-.515 1.077-.525 1.878v.522c0 .817.171 1.459.515 1.926.343.468.816.701 1.418.701.606 0 1.075-.22 1.407-.662.332-.441.503-1.073.512-1.897v-.527zm-9.273 3.784h-.933v-6.342h-2.28v-.767h5.498v.767h-2.285v6.342zm-8.458.088l-.249.01c-.778 0-1.398-.21-1.861-.63-.462-.42-.696-.998-.703-1.733v-4.844h.928v4.814c0 .515.142.914.425 1.199.283.285.687.427 1.211.427.53 0 .936-.141 1.218-.424.282-.284.422-.682.422-1.197v-4.819h.943v4.834c-.003.671-.214 1.219-.632 1.645-.419.427-.986.666-1.702.718zm-7.164-1.948h-2.979l-.669 1.86h-.966l2.714-7.109h.821l2.719 7.109h-.961l-.679-1.86zm-1.489-4.092l-1.207 3.325h2.417l-1.21-3.325zm-14.436-1.157h4.468v.767h-3.531v2.29h3.082v.766h-3.082v2.52h3.58v.766h-4.517v-7.109zm-5.14 3.11c.591.166 1.053.349 1.387.55.333.2.581.433.742.7.161.267.241.581.241.943 0 .576-.224 1.037-.673 1.384-.45.347-1.05.52-1.802.52-.488 0-.944-.094-1.367-.281-.424-.187-.75-.443-.979-.769a1.872 1.872 0 0 1-.345-1.108h.943c0 .429.159.769.476 1.018.317.249.741.373 1.272.373.495 0 .874-.101 1.138-.302a.986.986 0 0 0 .395-.826c0-.348-.122-.617-.366-.808-.244-.19-.687-.378-1.328-.564-.804-.231-1.389-.515-1.756-.852a1.627 1.627 0 0 1-.549-1.247c0-.56.224-1.023.671-1.389.448-.367 1.03-.55 1.746-.55.488 0 .924.095 1.306.283.383.189.679.45.889.782.21.332.315.695.315 1.089h-.943c0-.432-.136-.771-.41-1.017-.273-.247-.659-.37-1.157-.37-.462 0-.823.102-1.081.306-.259.203-.389.486-.389.848 0 .291.123.536.369.736.246.201.664.384 1.255.551zm-9.862-3.11h4.468v.767h-3.53v2.29h3.081v.766h-3.081v2.52h3.579v.766h-4.517v-7.109zm-4.43 0h.938v7.109h-.938v-7.109zm-4.957 4.326H3.384v2.783h-.938v-7.109h2.622c.778 0 1.388.198 1.829.596.441.397.661.922.661 1.577 0 .69-.215 1.221-.647 1.594-.431.373-1.049.559-1.853.559zm1.162-3.163c-.267-.255-.633-.387-1.098-.396H3.384v2.792h1.684c.501 0 .885-.118 1.152-.354.267-.236.401-.578.401-1.025 0-.424-.134-.763-.401-1.017z"/></svg>