<svg xmlns="http://www.w3.org/2000/svg">
  <symbol id="tools" viewBox="0 0 412 412.831" fill="currentColor"><path d="M53.219 68.645l15.84-15.84-12-24.078-32.317-12.961-8.562 8.558 12.96 32.32zm0 0M182.66 209.887l-47.465 47.453a88.52 88.52 0 0 0 20.688 20.687l47.953-47.949zm0 0M230.523 203.39l47.922-47.921a88.445 88.445 0 0 0-20.687-20.688l-47.352 47.352zm0 0M239.309 234.605l-90.473-94.226a89.105 89.105 0 0 0-8.055 8.059l94.239 90.457zm0 0M271.238 240.934l-3.914-11.711-37.687 37.687 11.71 3.91a8.006 8.006 0 0 1 5.235 5.649l1.855 7.441a88.585 88.585 0 0 0 35.887-35.906l-7.441-1.856a7.996 7.996 0 0 1-5.645-5.214zm0 0"/><path d="M298.902 298.484a16.003 16.003 0 0 1 17.68-3.359l41.438 18 18-28.64-37.84-27.282a15.913 15.913 0 0 1-6.172-16.992 15.906 15.906 0 0 1 13.691-11.805l45.121-5.12v-33.763l-44.64-4.957a16.002 16.002 0 0 1-7.84-28.722l36.32-26.801-16.96-29.277-41.04 17.918a15.996 15.996 0 0 1-17.746-3.305 15.997 15.997 0 0 1-3.375-17.734l17.84-41.2-29.2-16.8-26.8 36.16a16.002 16.002 0 0 1-28.719-7.762l-4.96-44.637h-34.641l-4.957 44.32a15.78 15.78 0 0 1-10.961 13.438 15.59 15.59 0 0 1-15.762-3.52 5.332 5.332 0 0 1-.719-.64 13.015 13.015 0 0 1-1.52-1.758l-26.398-35.762L99.7 55.285l17.762 40.719a15.994 15.994 0 0 1-3.371 17.672 15.994 15.994 0 0 1-17.668 3.367l-40.8-17.68-16.72 29.043 36.078 26.559c.239.238 1.04.96 1.36 1.2.32.241.402.48.64.722a15.55 15.55 0 0 1 3.602 15.84 15.768 15.768 0 0 1-13.363 10.957l-44.399 4.96v34.56l44.64 5.042c6.532.715 11.966 5.352 13.696 11.691s-.593 13.094-5.855 17.028l-36.32 26.8 16.96 29.278 41.04-17.918a16.004 16.004 0 0 1 17.75 3.305 16.002 16.002 0 0 1 3.37 17.734l-17.84 41.2 29.2 16.8 26.8-36.16c3-4.063 7.747-6.469 12.798-6.48a15.55 15.55 0 0 1 4.242.562 15.897 15.897 0 0 1 11.68 13.68l4.96 44.64h33.68l5.04-44.64a15.998 15.998 0 0 1 11.69-13.696c6.34-1.73 13.094.59 17.028 5.856l26.8 36.32 29.282-16.96-17.922-41.04a16.067 16.067 0 0 1 3.363-17.762zm-92.082 11.922c-57.437 0-104-46.562-104-104s46.563-104 104-104 104 46.563 104 104c-.066 57.41-46.59 103.934-104 104zm0 0"/><path d="M82.742 93.684l20 8.722-8.722-20.16-15.36-16.32-12.32 12.32zm0 0M370.82 370.406a7.926 7.926 0 0 0 2.403-5.68c0-2.14-.868-4.19-2.403-5.683l-40.718-40.559-19.84-8.64 8.64 20 40.637 40.562a7.836 7.836 0 0 0 11.281 0zm0 0"/><path d="M370.582 322.887a16.29 16.29 0 0 1-7.84 5.52l19.438 19.359a24 24 0 0 1-16.961 40.96 23.92 23.92 0 0 1-16.957-6.96l-19.602-19.52a16.236 16.236 0 0 1-5.441 7.68l24.8 22.96a32 32 0 0 0 34.946 7.15 31.994 31.994 0 0 0 19.855-29.63 31.497 31.497 0 0 0-9.28-22.562zm0 0M85.621 350.805l17.758-40.961-41.117 17.84c-7.473 3.261-16.203.363-20.242-6.72l-7.758-13.519a49.65 49.65 0 0 0-19.762 12.16 49.043 49.043 0 0 0-12.16 48l22.8-22.878a8.06 8.06 0 0 1 11.36 0l32 32c3.121 3.14 3.121 8.214 0 11.359l-22.879 22.8c25.387 7.387 52.043-6.757 60.16-31.921l-13.601-7.762c-7.09-4.113-9.922-12.922-6.559-20.398zm0 0M328.02 62.004l-17.758 40.96 41.117-17.839c7.473-3.262 16.203-.363 20.242 6.719l7.758 13.52a49.606 49.606 0 0 0 19.762-12.16 49.043 49.043 0 0 0 12.16-48L388.5 68.085a8.068 8.068 0 0 1-11.36 0l-32-32c-3.12-3.145-3.12-8.219 0-11.36l22.88-22.8a49.045 49.045 0 0 0-48 12.16 49.707 49.707 0 0 0-12.16 19.758l13.6 7.761c7.09 4.114 9.923 12.922 6.56 20.399zm0 0"/></symbol>
  <symbol id="batteries" viewBox="0 0 448 448" fill="currentColor"><path d="M328 280h104v128H328zm0 0M0 240h448v24H0zm0 0M16 280h104v128H16zm0 0M48 120h48v16H48zm0 0M0 424h448v24H0zm0 0M136 280v128h176V280zm48 16h80v16h-80zm-32 0h16v16h-16zm16 96h-16v-16h16zm96 0h-80v-16h80zm32 0h-16v-16h16zm0-40H152v-16h144zm0-40h-16v-16h16zm0 0M64 88h16v16H64zm0 0M16 192h416v32H16zm0 0M368 88h16v16h-16zm0 0M352 120h48v16h-48zm0 0M0 152h448v24H0zm0 0M222.496 43.328a8.007 8.007 0 0 1 1.09 7.2L213 82.312 254.922 32H224a8.001 8.001 0 0 1-7.16-11.574L227.055 0h-21.782l-17.136 40H216a8.004 8.004 0 0 1 6.496 3.328zm0 0M352 24h48v16h-48zm0 0M64 56h16V40h16V24H80V8H64v16H48v16h16zm0 0"/></symbol>
  <symbol id="tyres" viewBox="0 0 448 448" fill="currentColor"><path d="M207.121 287.984h33.758L224 264.785zm0 0"/><path d="M280.398 287.984l-36.957-50.879a8.008 8.008 0 0 1-1.12-7.203 8.147 8.147 0 0 1 5.12-5.117l100.32-32.562a141.9 141.9 0 0 0-4.96-15.278l-100.32 32.64a9.068 9.068 0 0 1-2.481.4 8.267 8.267 0 0 1-4.719-1.52 7.995 7.995 0 0 1-3.281-6.48V96.464c-5.328-.32-10.672-.32-16 0v105.52a7.995 7.995 0 0 1-3.281 6.48 8.267 8.267 0 0 1-4.719 1.52 9.068 9.068 0 0 1-2.48-.4l-100.32-32.64a141.9 141.9 0 0 0-4.962 15.278l100.32 32.562a8.147 8.147 0 0 1 5.122 5.117 8.008 8.008 0 0 1-1.121 7.203l-36.957 50.88h19.757l30.16-41.52a8.288 8.288 0 0 1 12.961 0l30.16 41.52zm0 0"/><path d="M96 223.984a127.341 127.341 0 0 0 17.281 64h34.559l37.281-51.359-88-28.64a132.817 132.817 0 0 0-1.121 16zm0 0M424 303.984H24c-13.238.04-23.96 10.762-24 24v96c.04 13.239 10.762 23.961 24 24h400c13.238-.039 23.96-10.761 24-24v-96c-.04-13.238-10.762-23.96-24-24zm-384 128H24v-16h16zm0-32H24v-16h16zm0-32H24v-16h16zm0-32H24v-16h16zm352 96H56v-16h336zm0-32H56v-16h336zm0-32H56v-16h336zm0-32H56v-16h336zm32 96h-16v-16h16zm0-32h-16v-16h16zm0-32h-16v-16h16zm0-32h-16v-16h16zm0 0M111.922 162.305L200 190.945v-92.64a129.094 129.094 0 0 0-88.078 64zm0 0M334.719 287.984a127.341 127.341 0 0 0 17.281-64 132.022 132.022 0 0 0-1.121-16l-88 28.641 37.281 51.36zm0 0M248 98.305v92.64l88.078-28.64a129.094 129.094 0 0 0-88.078-64zm0 0"/><path d="M24 287.984h71.121a143.974 143.974 0 0 1-15.121-64 140.98 140.98 0 0 1 2.8-28.082 138.152 138.152 0 0 1 10.481-32.238c21.125-45.324 64.121-76.559 113.758-82.64a141.59 141.59 0 0 1 33.922 0c49.637 6.081 92.633 37.316 113.758 82.64a137.575 137.575 0 0 1 10.48 32.32 139.568 139.568 0 0 1 2.801 28 143.974 143.974 0 0 1-15.121 64H424c4.676.024 9.312.891 13.68 2.559 26.222-84.125.664-175.809-65.297-234.238-65.961-58.43-160.059-72.742-240.406-36.563C51.629 55.922-.027 135.867 0 223.984a222.022 222.022 0 0 0 10.32 66.559A38.898 38.898 0 0 1 24 287.984zm200-272v16c-105.98.141-191.86 86.02-192 192H16c.11-114.828 93.172-207.89 208-208zm0 0"/></symbol>
  <symbol id="new-item" width="15" height="40"><path fill-rule="evenodd" fill="#ADD19A" d="M0 0h15v40H0V0z"/><path fill-rule="evenodd" fill="#FFF" d="M10.525 31.178H3.416v-1.465l4.687-2.857H3.416v-1.46h7.109v1.465l-4.678 2.852h4.678v1.465zM3.416 19.42h1.186v3.291h1.695v-2.813h1.147v2.813h1.904V19.41h1.177v4.766H3.416V19.42zm0-2.241l5.048-.962-5.048-1.172v-1.24l5.058-1.167-5.058-.957v-1.46l7.109 1.577v1.474L5.769 14.43l4.756 1.157v1.474l-7.109 1.578v-1.46z"/></symbol>
  <symbol id="hot-item" width="15" height="40"><path fill-rule="evenodd" fill="#EFBF88" d="M0 0h15v40H0V0z"/><path fill-rule="evenodd" fill="#FFF" d="M5.118 16.039H3.932v-5.791h1.186v2.178h5.923v1.465H5.118v2.148zm-.857 1.755c.285-.46.694-.817 1.226-1.069s1.147-.378 1.843-.378h.318c.699 0 1.313.123 1.84.371.528.247.935.601 1.221 1.062.287.46.43.989.43 1.584 0 .589-.142 1.115-.425 1.577a2.821 2.821 0 0 1-1.213 1.075c-.526.254-1.131.382-1.814.385h-.352c-.7 0-1.316-.126-1.848-.378a2.822 2.822 0 0 1-1.226-1.069c-.285-.461-.427-.987-.427-1.58 0-.592.142-1.119.427-1.58zm1.358 2.718c.382.267.943.402 1.682.405h.347c.725 0 1.289-.133 1.689-.4.4-.267.601-.651.601-1.153 0-.491-.193-.869-.579-1.133-.386-.263-.948-.397-1.687-.4h-.347c-.745 0-1.312.134-1.699.4-.387.267-.581.648-.581 1.143 0 .492.191.871.574 1.138zm5.422 4.355H7.994v2.857h3.047v1.464H3.932v-1.464h2.881v-2.857H3.932v-1.465h7.109v1.465z"/></symbol>
  <symbol id="sale-item" width="15" height="40"><path fill-rule="evenodd" fill="#E2939A" d="M0 0h15v40H0V0z"/><path fill-rule="evenodd" fill="#FFF" d="M3.916 22.273l7.109-2.661v1.558l-1.465.493v2.568l1.465.489v1.557l-7.109-2.646v-1.358zm4.458 1.563v-1.777l-2.661.893 2.661.884zM3.916 17.21h5.932V14.1h1.177v4.575H3.916V17.21zm0-8.291h1.186v3.291h1.695V9.397h1.147v2.813h1.904V8.909h1.177v4.766H3.916V8.919zm.957 17.932c.335-.22.716-.33 1.142-.33v1.465c-.325 0-.578.103-.759.308-.181.205-.271.493-.271.864 0 .358.076.637.227.835a.715.715 0 0 0 .598.298c.231 0 .425-.116.581-.349.157-.233.303-.576.44-1.028.25-.833.561-1.44.932-1.821s.834-.572 1.387-.572c.615 0 1.098.233 1.448.699.35.465.525 1.092.525 1.88 0 .546-.1 1.044-.301 1.494-.2.449-.474.792-.822 1.027a2.101 2.101 0 0 1-1.211.354v-1.469c.784 0 1.176-.469 1.176-1.406 0-.349-.07-.621-.212-.816a.692.692 0 0 0-.593-.293c-.277 0-.489.098-.637.293-.148.195-.305.547-.469 1.055-.164.508-.326.91-.486 1.206-.436.807-1.024 1.211-1.763 1.211-.384 0-.726-.108-1.028-.325-.301-.216-.536-.527-.705-.933a3.512 3.512 0 0 1-.254-1.364c0-.508.092-.961.276-1.358.184-.397.443-.705.779-.925z"/></symbol>
  <symbol id="whyus_1" viewBox="0 0 58 58"><g fill="#5e3118"><path d="M41.528 5.884L55 19.356l-.528.528H58v-14zM24.174 5.884H7a7 7 0 1 0 0 14h4.23l-.528-.528L24.174 5.884z"/></g><g fill="#77442b"><path d="M16.543 8.367a51.15 51.15 0 0 1-1.961.104 1 1 0 0 0 .035 1.999l.037-.001a53.084 53.084 0 0 0 2.037-.108 1 1 0 0 0-.148-1.994zM10.588 8.569c-.696.02-1.379.045-2.034.086a1 1 0 1 0 .123 1.996 57.082 57.082 0 0 1 1.966-.082c.552-.016.987-.475.973-1.027s-.492-.947-1.028-.973zM4.359 9.319c-.907.297-1.602.694-2.12 1.213a.999.999 0 1 0 1.414 1.414c.288-.287.734-.532 1.329-.727a1 1 0 0 0-.623-1.9zM50 8.884h-2a1 1 0 1 0 0 2h2a1 1 0 1 0 0-2zM56 8.884h-2a1 1 0 1 0 0 2h2a1 1 0 1 0 0-2z"/></g><path d="M55.556 19.884L35.8.156a.139.139 0 0 0-.196 0L15.849 19.884h39.707z" fill="#eaead6"/><path d="M15.876 19.884L32.851 2.909 30.098.156a.139.139 0 0 0-.196 0L10.147 19.884h5.729z" fill="#bfbda3"/><path d="M47.331 20.509l.309-.309L35.759 8.335a.08.08 0 0 0-.115 0L23.769 20.2l.309.309h23.253z" fill="#6d8c60"/><path d="M0 12.884v38.848a6.152 6.152 0 0 0 6.152 6.152H58v-38H7a7 7 0 0 1-7-7z" fill="#77442b"/><path d="M52 24.884h-2a1 1 0 1 1 0-2h2a1 1 0 1 1 0 2zm-6 0h-2a1 1 0 1 1 0-2h2a1 1 0 1 1 0 2zm-6 0h-2a1 1 0 1 1 0-2h2a1 1 0 1 1 0 2zm-6 0h-2a1 1 0 1 1 0-2h2a1 1 0 1 1 0 2zm-6 0h-2a1 1 0 1 1 0-2h2a1 1 0 1 1 0 2zm-6 0h-2a1 1 0 1 1 0-2h2a1 1 0 1 1 0 2zm-6 0h-2a1 1 0 1 1 0-2h2a1 1 0 1 1 0 2zm-6 0H8a1 1 0 1 1 0-2h2a1 1 0 1 1 0 2zm-5.909-.63a.99.99 0 0 1-.415-.091 8.008 8.008 0 0 1-1.914-1.231 1.002 1.002 0 0 1 1.31-1.513c.433.376.916.687 1.436.925a1 1 0 0 1-.417 1.91zM52 54.884h-2a1 1 0 1 1 0-2h2a1 1 0 1 1 0 2zm-6 0h-2a1 1 0 1 1 0-2h2a1 1 0 1 1 0 2zm-6 0h-2a1 1 0 1 1 0-2h2a1 1 0 1 1 0 2zm-6 0h-2a1 1 0 1 1 0-2h2a1 1 0 1 1 0 2zm-6 0h-2a1 1 0 1 1 0-2h2a1 1 0 1 1 0 2zm-6 0h-2a1 1 0 1 1 0-2h2a1 1 0 1 1 0 2zm-6 0h-2a1 1 0 1 1 0-2h2a1 1 0 1 1 0 2zm-6 0H8a1 1 0 1 1 0-2h2a1 1 0 1 1 0 2zm-5.909-.63a.99.99 0 0 1-.415-.091 8.008 8.008 0 0 1-1.914-1.231 1.002 1.002 0 0 1 1.31-1.513c.433.376.916.687 1.436.925a1 1 0 0 1-.417 1.91z" fill="#91553d"/><path d="M58 45.051H46a6 6 0 1 1 0-12h12v12z" fill="#6d3d25"/><path d="M58 43.884H46a6 6 0 1 1 0-12h12v12z" fill="#5e3118"/><circle cx="47" cy="37.884" r="3" fill="#e4c05c"/></symbol>
  <symbol id="whyus_2" viewBox="0 0 60 60"><path fill="#f0c419" d="M47 41.878h10v14H47z"/><path fill="#f29c1f" d="M32 32.878h10v23H32z"/><path fill="#e57e25" d="M17 24.878h10v31H17z"/><path fill="#d25627" d="M2 16.878h10v39H2z"/><path d="M59 56.878H1a1 1 0 1 1 0-2h58a1 1 0 1 1 0 2z" fill="#556080"/><path d="M51.251 27.623a.997.997 0 0 1-.499-.134l-38.971-22.5a1 1 0 1 1 1-1.732l38.971 22.5a1 1 0 0 1-.501 1.866z" fill="#d1d4d1"/><path d="M42.689 28.453a1 1 0 0 1-.096-1.995l8.563-.83a.993.993 0 0 1 1.092.898 1 1 0 0 1-.898 1.092l-8.563.83a1.11 1.11 0 0 1-.098.005z" fill="#d1d4d1"/><path d="M51.253 27.623c-.38 0-.743-.218-.911-.586l-3.563-7.83a.999.999 0 1 1 1.82-.828l3.563 7.83a.999.999 0 0 1-.909 1.414z" fill="#d1d4d1"/></symbol>
  <symbol id="whyus_3" viewBox="0 0 58 58"><path d="M0 3v44h38v-7.305C39.593 41.124 41.692 42 44 42s4.407-.876 6-2.305V47h8V3H0z" fill="#f0ede0"/><circle cx="44" cy="33" r="9" fill="#ddc043"/><path d="M44 42a8.955 8.955 0 0 1-6-2.305V55l6-6 6 6V39.695A8.955 8.955 0 0 1 44 42z" fill="#f3d55b"/><g fill="#d6d1bb"><path d="M54 24a1 1 0 0 1-1-1v-1a1 1 0 1 1 2 0v1a1 1 0 0 1-1 1zM54 17.167a1 1 0 0 1-1-1v-2.333a1 1 0 1 1 2 0v2.333a1 1 0 0 1-1 1zM54 9a1 1 0 0 1-1-1 1 1 0 1 1 0-2h2v2a1 1 0 0 1-1 1zM47.894 8h-2.042a1 1 0 1 1 0-2h2.042a1 1 0 1 1 0 2zm-7.149 0h-2.042a1 1 0 1 1 0-2h2.042a1 1 0 1 1 0 2zm-7.149 0h-2.042a1 1 0 1 1 0-2h2.042a1 1 0 1 1 0 2zm-7.149 0h-2.042a1 1 0 1 1 0-2h2.042a1 1 0 1 1 0 2zm-7.149 0h-2.042a1 1 0 1 1 0-2h2.042a1 1 0 1 1 0 2zm-7.149 0h-2.042a1 1 0 1 1 0-2h2.042a1 1 0 1 1 0 2zM4 9a1 1 0 0 1-1-1V6h2a1 1 0 1 1 0 2 1 1 0 0 1-1 1zM4 37.849a1 1 0 0 1-1-1v-2.061a1 1 0 1 1 2 0v2.061a1 1 0 0 1-1 1zm0-7.213a1 1 0 0 1-1-1v-2.061a1 1 0 1 1 2 0v2.061a1 1 0 0 1-1 1zm0-7.212a1 1 0 0 1-1-1v-2.061a1 1 0 1 1 2 0v2.061a1 1 0 0 1-1 1zm0-7.212a1 1 0 0 1-1-1v-2.061a1 1 0 1 1 2 0v2.061a1 1 0 0 1-1 1zM5 44H3v-2a1 1 0 1 1 2 0 1 1 0 1 1 0 2zM26 44h-2a1 1 0 1 1 0-2h2a1 1 0 1 1 0 2zm-7 0h-2a1 1 0 1 1 0-2h2a1 1 0 1 1 0 2zm-7 0h-2a1 1 0 1 1 0-2h2a1 1 0 1 1 0 2zM32 44h-1a1 1 0 1 1 0-2h1a1 1 0 1 1 0 2z"/></g><path d="M18 18a1 1 0 1 0 2 0 5.01 5.01 0 0 0-4-4.899V12a1 1 0 1 0-2 0v1.104a4.985 4.985 0 0 0-2.818 1.668 3.438 3.438 0 0 0-.794 2.603 3.65 3.65 0 0 0 1.383 2.491L14 21.6v5.438a2.996 2.996 0 0 1-2-2.816 1 1 0 1 0-2 0 5.01 5.01 0 0 0 4 4.899V30a1 1 0 1 0 2 0v-.882a4.991 4.991 0 0 0 2.819-1.668 3.444 3.444 0 0 0 .793-2.605 3.646 3.646 0 0 0-1.383-2.488L16 20.623v-5.438c1.161.413 2 1.513 2 2.815zm-.999 5.935c.349.271.576.68.622 1.118.043.41-.075.803-.331 1.105a2.988 2.988 0 0 1-1.292.875v-3.878l1.001.78zm-4.002-5.647a1.642 1.642 0 0 1-.622-1.12 1.46 1.46 0 0 1 .331-1.104A2.988 2.988 0 0 1 14 15.189v3.877l-1.001-.778z" fill="#24ae5f"/><g fill="#d4c3a5"><path d="M47 15H24a1 1 0 1 0 0 2h23a1 1 0 1 0 0-2zM35 21H24a1 1 0 1 0 0 2h11a1 1 0 1 0 0-2zM32 27h-8a1 1 0 1 0 0 2h8a1 1 0 1 0 0-2zM31 34H10a1 1 0 1 0 0 2h21a1 1 0 1 0 0-2z"/></g><circle cx="44" cy="33" r="5" fill="#f9eab0"/></symbol>
  <symbol id="whyus_4" viewBox="0 0 512 512"><path fill="#b4e1fa" d="M441.379 220.69h-97.103v-88.276h79.448z"/><path d="M17.655 370.759h476.69a8.829 8.829 0 0 0 8.828-8.828v-61.793H8.828v61.793a8.828 8.828 0 0 0 8.827 8.828z" fill="#707487"/><path fill="#5b5d6e" d="M344.276 300.138V158.897h-35.31v141.241H8.828v35.31h494.344v-35.31z"/><g fill="#ffd782"><path d="M8.828 79.448h300.138a8.829 8.829 0 0 1 8.828 8.828v211.862a8.829 8.829 0 0 1-8.828 8.828H8.828A8.829 8.829 0 0 1 0 300.138V88.276a8.829 8.829 0 0 1 8.828-8.828zM490.367 225.858l-41.22-11.777-12.785-70.339c-3.06-16.793-17.673-28.983-34.741-28.983h-57.345a8.823 8.823 0 0 0-8.828 8.828v158.897h167.724v-39.649a17.655 17.655 0 0 0-12.805-16.977zm-119.608-13.996c-9.751 0-17.655-7.904-17.655-17.655v-44.138a8.829 8.829 0 0 1 8.828-8.828H410.7a8.827 8.827 0 0 1 8.687 7.262l10.326 57.292c.569 3.16-1.859 6.067-5.07 6.067h-53.884z"/></g><circle cx="414.897" cy="379.586" r="52.966" fill="#464655"/><circle cx="414.897" cy="379.586" r="35.31" fill="#c7cfe2"/><circle cx="414.897" cy="379.586" r="13.241" fill="#afb9d2"/><circle cx="88.276" cy="379.586" r="52.966" fill="#464655"/><circle cx="88.276" cy="379.586" r="35.31" fill="#c7cfe2"/><circle cx="88.276" cy="379.586" r="13.241" fill="#afb9d2"/><path d="M344.276 361.931h3.372c3.343 0 6.4-1.889 7.895-4.879l19.164-38.326a17.652 17.652 0 0 1 15.791-9.76h48.798a17.654 17.654 0 0 1 15.791 9.76l19.164 38.326a8.827 8.827 0 0 0 7.895 4.879h21.026a8.829 8.829 0 0 0 8.828-8.828V291.31c0-9.751-7.904-17.655-17.655-17.655H335.448v79.448a8.829 8.829 0 0 0 8.828 8.828z" fill="#ffc36e"/><path d="M308.966 388.414H220.69a8.829 8.829 0 0 1-8.828-8.828v-35.31a8.829 8.829 0 0 1 8.828-8.828h88.276a8.829 8.829 0 0 1 8.828 8.828v35.31a8.83 8.83 0 0 1-8.828 8.828z" fill="#afb9d2"/><g fill="#959cb3"><path d="M247.172 353.103a8.829 8.829 0 0 0-8.828 8.828v26.483H256v-26.483a8.829 8.829 0 0 0-8.828-8.828zM282.483 353.103a8.829 8.829 0 0 0-8.828 8.828v26.483h17.655v-26.483a8.828 8.828 0 0 0-8.827-8.828z"/></g><path d="M291.31 291.31H26.483a8.829 8.829 0 0 1 0-17.656H291.31a8.828 8.828 0 0 1 0 17.656z" fill="#ffc36e"/></symbol>



</svg>
