<svg xmlns="http://www.w3.org/2000/svg">
  <symbol id="tools" viewBox="0 0 412 412.831" fill="currentColor"><path d="M53.219 68.645l15.84-15.84-12-24.078-32.317-12.961-8.562 8.558 12.96 32.32zm0 0M182.66 209.887l-47.465 47.453a88.52 88.52 0 0 0 20.688 20.687l47.953-47.949zm0 0M230.523 203.39l47.922-47.921a88.445 88.445 0 0 0-20.687-20.688l-47.352 47.352zm0 0M239.309 234.605l-90.473-94.226a89.105 89.105 0 0 0-8.055 8.059l94.239 90.457zm0 0M271.238 240.934l-3.914-11.711-37.687 37.687 11.71 3.91a8.006 8.006 0 0 1 5.235 5.649l1.855 7.441a88.585 88.585 0 0 0 35.887-35.906l-7.441-1.856a7.996 7.996 0 0 1-5.645-5.214zm0 0"/><path d="M298.902 298.484a16.003 16.003 0 0 1 17.68-3.359l41.438 18 18-28.64-37.84-27.282a15.913 15.913 0 0 1-6.172-16.992 15.906 15.906 0 0 1 13.691-11.805l45.121-5.12v-33.763l-44.64-4.957a16.002 16.002 0 0 1-7.84-28.722l36.32-26.801-16.96-29.277-41.04 17.918a15.996 15.996 0 0 1-17.746-3.305 15.997 15.997 0 0 1-3.375-17.734l17.84-41.2-29.2-16.8-26.8 36.16a16.002 16.002 0 0 1-28.719-7.762l-4.96-44.637h-34.641l-4.957 44.32a15.78 15.78 0 0 1-10.961 13.438 15.59 15.59 0 0 1-15.762-3.52 5.332 5.332 0 0 1-.719-.64 13.015 13.015 0 0 1-1.52-1.758l-26.398-35.762L99.7 55.285l17.762 40.719a15.994 15.994 0 0 1-3.371 17.672 15.994 15.994 0 0 1-17.668 3.367l-40.8-17.68-16.72 29.043 36.078 26.559c.239.238 1.04.96 1.36 1.2.32.241.402.48.64.722a15.55 15.55 0 0 1 3.602 15.84 15.768 15.768 0 0 1-13.363 10.957l-44.399 4.96v34.56l44.64 5.042c6.532.715 11.966 5.352 13.696 11.691s-.593 13.094-5.855 17.028l-36.32 26.8 16.96 29.278 41.04-17.918a16.004 16.004 0 0 1 17.75 3.305 16.002 16.002 0 0 1 3.37 17.734l-17.84 41.2 29.2 16.8 26.8-36.16c3-4.063 7.747-6.469 12.798-6.48a15.55 15.55 0 0 1 4.242.562 15.897 15.897 0 0 1 11.68 13.68l4.96 44.64h33.68l5.04-44.64a15.998 15.998 0 0 1 11.69-13.696c6.34-1.73 13.094.59 17.028 5.856l26.8 36.32 29.282-16.96-17.922-41.04a16.067 16.067 0 0 1 3.363-17.762zm-92.082 11.922c-57.437 0-104-46.562-104-104s46.563-104 104-104 104 46.563 104 104c-.066 57.41-46.59 103.934-104 104zm0 0"/><path d="M82.742 93.684l20 8.722-8.722-20.16-15.36-16.32-12.32 12.32zm0 0M370.82 370.406a7.926 7.926 0 0 0 2.403-5.68c0-2.14-.868-4.19-2.403-5.683l-40.718-40.559-19.84-8.64 8.64 20 40.637 40.562a7.836 7.836 0 0 0 11.281 0zm0 0"/><path d="M370.582 322.887a16.29 16.29 0 0 1-7.84 5.52l19.438 19.359a24 24 0 0 1-16.961 40.96 23.92 23.92 0 0 1-16.957-6.96l-19.602-19.52a16.236 16.236 0 0 1-5.441 7.68l24.8 22.96a32 32 0 0 0 34.946 7.15 31.994 31.994 0 0 0 19.855-29.63 31.497 31.497 0 0 0-9.28-22.562zm0 0M85.621 350.805l17.758-40.961-41.117 17.84c-7.473 3.261-16.203.363-20.242-6.72l-7.758-13.519a49.65 49.65 0 0 0-19.762 12.16 49.043 49.043 0 0 0-12.16 48l22.8-22.878a8.06 8.06 0 0 1 11.36 0l32 32c3.121 3.14 3.121 8.214 0 11.359l-22.879 22.8c25.387 7.387 52.043-6.757 60.16-31.921l-13.601-7.762c-7.09-4.113-9.922-12.922-6.559-20.398zm0 0M328.02 62.004l-17.758 40.96 41.117-17.839c7.473-3.262 16.203-.363 20.242 6.719l7.758 13.52a49.606 49.606 0 0 0 19.762-12.16 49.043 49.043 0 0 0 12.16-48L388.5 68.085a8.068 8.068 0 0 1-11.36 0l-32-32c-3.12-3.145-3.12-8.219 0-11.36l22.88-22.8a49.045 49.045 0 0 0-48 12.16 49.707 49.707 0 0 0-12.16 19.758l13.6 7.761c7.09 4.114 9.923 12.922 6.56 20.399zm0 0"/></symbol>
  <symbol id="batteries" viewBox="0 0 448 448" fill="currentColor"><path d="M328 280h104v128H328zm0 0M0 240h448v24H0zm0 0M16 280h104v128H16zm0 0M48 120h48v16H48zm0 0M0 424h448v24H0zm0 0M136 280v128h176V280zm48 16h80v16h-80zm-32 0h16v16h-16zm16 96h-16v-16h16zm96 0h-80v-16h80zm32 0h-16v-16h16zm0-40H152v-16h144zm0-40h-16v-16h16zm0 0M64 88h16v16H64zm0 0M16 192h416v32H16zm0 0M368 88h16v16h-16zm0 0M352 120h48v16h-48zm0 0M0 152h448v24H0zm0 0M222.496 43.328a8.007 8.007 0 0 1 1.09 7.2L213 82.312 254.922 32H224a8.001 8.001 0 0 1-7.16-11.574L227.055 0h-21.782l-17.136 40H216a8.004 8.004 0 0 1 6.496 3.328zm0 0M352 24h48v16h-48zm0 0M64 56h16V40h16V24H80V8H64v16H48v16h16zm0 0"/></symbol>
  <symbol id="tyres" viewBox="0 0 448 448" fill="currentColor"><path d="M207.121 287.984h33.758L224 264.785zm0 0"/><path d="M280.398 287.984l-36.957-50.879a8.008 8.008 0 0 1-1.12-7.203 8.147 8.147 0 0 1 5.12-5.117l100.32-32.562a141.9 141.9 0 0 0-4.96-15.278l-100.32 32.64a9.068 9.068 0 0 1-2.481.4 8.267 8.267 0 0 1-4.719-1.52 7.995 7.995 0 0 1-3.281-6.48V96.464c-5.328-.32-10.672-.32-16 0v105.52a7.995 7.995 0 0 1-3.281 6.48 8.267 8.267 0 0 1-4.719 1.52 9.068 9.068 0 0 1-2.48-.4l-100.32-32.64a141.9 141.9 0 0 0-4.962 15.278l100.32 32.562a8.147 8.147 0 0 1 5.122 5.117 8.008 8.008 0 0 1-1.121 7.203l-36.957 50.88h19.757l30.16-41.52a8.288 8.288 0 0 1 12.961 0l30.16 41.52zm0 0"/><path d="M96 223.984a127.341 127.341 0 0 0 17.281 64h34.559l37.281-51.359-88-28.64a132.817 132.817 0 0 0-1.121 16zm0 0M424 303.984H24c-13.238.04-23.96 10.762-24 24v96c.04 13.239 10.762 23.961 24 24h400c13.238-.039 23.96-10.761 24-24v-96c-.04-13.238-10.762-23.96-24-24zm-384 128H24v-16h16zm0-32H24v-16h16zm0-32H24v-16h16zm0-32H24v-16h16zm352 96H56v-16h336zm0-32H56v-16h336zm0-32H56v-16h336zm0-32H56v-16h336zm32 96h-16v-16h16zm0-32h-16v-16h16zm0-32h-16v-16h16zm0-32h-16v-16h16zm0 0M111.922 162.305L200 190.945v-92.64a129.094 129.094 0 0 0-88.078 64zm0 0M334.719 287.984a127.341 127.341 0 0 0 17.281-64 132.022 132.022 0 0 0-1.121-16l-88 28.641 37.281 51.36zm0 0M248 98.305v92.64l88.078-28.64a129.094 129.094 0 0 0-88.078-64zm0 0"/><path d="M24 287.984h71.121a143.974 143.974 0 0 1-15.121-64 140.98 140.98 0 0 1 2.8-28.082 138.152 138.152 0 0 1 10.481-32.238c21.125-45.324 64.121-76.559 113.758-82.64a141.59 141.59 0 0 1 33.922 0c49.637 6.081 92.633 37.316 113.758 82.64a137.575 137.575 0 0 1 10.48 32.32 139.568 139.568 0 0 1 2.801 28 143.974 143.974 0 0 1-15.121 64H424c4.676.024 9.312.891 13.68 2.559 26.222-84.125.664-175.809-65.297-234.238-65.961-58.43-160.059-72.742-240.406-36.563C51.629 55.922-.027 135.867 0 223.984a222.022 222.022 0 0 0 10.32 66.559A38.898 38.898 0 0 1 24 287.984zm200-272v16c-105.98.141-191.86 86.02-192 192H16c.11-114.828 93.172-207.89 208-208zm0 0"/></symbol>
  <symbol id="gasoline" viewBox="-112 0 464 464" fill="currentColor"><path d="M40 464h160c13.016 0 24.488-6.344 31.793-16H8.207c7.305 9.656 18.777 16 31.793 16zm0 0M32 400h176V208H32zm38.426-93.816L120 215.297l49.574 90.879A52.745 52.745 0 0 1 176 331.375C176 360.391 152.39 384 123.375 384h-6.75C87.609 384 64 360.39 64 331.375c0-8.773 2.215-17.48 6.426-25.191zm0 0"/><path d="M116.625 368h6.75C143.566 368 160 351.566 160 331.375c0-6.11-1.543-12.168-4.473-17.535L120 248.703 84.473 313.84A36.71 36.71 0 0 0 80 331.375C80 351.575 96.434 368 116.625 368zm0 0"/><path d="M0 424c0 2.734.281 5.414.809 8H239.19c.528-2.586.809-5.266.809-8V176H0zm16-232h208v224H16zm0 0M152 32h64c4.414 0 8-3.586 8-8V8c0-4.414-3.586-8-8-8h-64c-4.414 0-8 3.586-8 8v16c0 4.414 3.586 8 8 8zm0 0M235.777 129.45L208 73.894V48h-48v29.414L25.145 131.36C12.575 136.383 3.777 147.184 1.008 160H240v-12.672c0-6.176-1.465-12.36-4.223-17.879zm0 0"/></symbol>
  <symbol id="otherparts" viewBox="0 0 480 480" fill="currentColor"><path d="M307.876 196.116A96.002 96.002 0 0 0 240 168c-53.019.003-95.998 42.985-95.995 96.004a96.002 96.002 0 0 0 28.115 67.876l11.312-11.312A79.44 79.44 0 0 1 160.392 272H176v-16h-15.592a79.565 79.565 0 0 1 17.688-42.592l10.992 10.992 11.312-11.312-10.992-10.992A79.565 79.565 0 0 1 232 184.408V200h16v-15.592a79.565 79.565 0 0 1 42.592 17.688l-8.248 8.248 11.312 11.312 8.248-8.248A79.565 79.565 0 0 1 319.592 256H304v16h15.608a79.44 79.44 0 0 1-23.04 48.568l11.312 11.312c37.489-37.491 37.487-98.275-.004-135.764z"/><path d="M285.664 229.656l-11.312-11.312L250.28 242.4A23.608 23.608 0 0 0 240 240c-13.255 0-24 10.745-24 24s10.745 24 24 24 24-10.745 24-24a23.608 23.608 0 0 0-2.4-10.28l24.064-24.064zM240 272a8 8 0 1 1 0-16 8 8 0 0 1 0 16zM208 320h64v16h-64zM462.296 175.24A380.3 380.3 0 0 0 240 104a380.3 380.3 0 0 0-222.296 71.24L0 187.88v19.664l27-19.28c127.411-91.03 298.589-91.03 426 0l27 19.28V187.88l-17.704-12.64z"/><path d="M352 160h16v16h-16zM112 160h16v16h-16z"/><path d="M351.2 327.248A79.196 79.196 0 0 0 400 344c44.183 0 80-35.817 80-80s-35.817-80-80-80a79.199 79.199 0 0 0-48.872 16.8c-34.75-61.374-112.673-82.958-174.048-48.208a127.702 127.702 0 0 0-48.208 48.208A79.199 79.199 0 0 0 80 184c-44.183 0-80 35.817-80 80s35.817 80 80 80a79.255 79.255 0 0 0 48.8-16.752A127.424 127.424 0 0 0 155.592 360H0v16h480v-16H324.408a127.39 127.39 0 0 0 26.792-32.752zM400 200c35.346-.033 64.027 28.593 64.06 63.94s-28.593 64.027-63.94 64.06a64.004 64.004 0 0 1-41.721-15.416c.608-1.456 1.04-2.96 1.6-4.432.632-1.688 1.272-3.376 1.824-5.088.84-2.584 1.528-5.192 2.2-7.816.416-1.648.888-3.288 1.24-4.952.608-2.896 1.04-5.824 1.44-8.76.2-1.424.488-2.832.632-4.272.45-4.407.672-8.834.664-13.264-.044-17.647 14.227-31.987 31.873-32.031a31.96 31.96 0 0 1 12.303 2.431L393.6 259.2l.112.08A7.804 7.804 0 0 0 392 264a8 8 0 0 0 8 8 7.84 7.84 0 0 0 6.288-3.28l.112.08 18.496-24.656c10.28 12.639 9.3 31.013-2.264 42.488l11.312 11.312c19.03-18.456 19.495-48.845 1.038-67.874-18.456-19.03-48.845-19.495-67.874-1.038a47.952 47.952 0 0 0-3.236 3.465c-.648-2.496-1.312-4.992-2.104-7.456-.568-1.752-1.216-3.472-1.864-5.192-.544-1.464-.976-2.96-1.6-4.408A63.437 63.437 0 0 1 400 200zM42.796 294.48a47.937 47.937 0 0 0 3.236 3.464h.024l11.312-11.312c-12.509-12.484-12.53-32.745-.046-45.255a32 32 0 0 1 34.854-6.977L73.6 259.2l.112.08A7.804 7.804 0 0 0 72 264a8 8 0 0 0 8 8 7.84 7.84 0 0 0 6.288-3.28l.112.08 18.496-24.656A31.68 31.68 0 0 1 112 264c.011 4.431.251 8.858.72 13.264.144 1.44.432 2.848.632 4.28.4 2.936.8 5.856 1.44 8.744.352 1.68.8 3.328 1.248 4.984.664 2.608 1.352 5.208 2.184 7.776.56 1.728 1.208 3.44 1.848 5.152.536 1.456.968 2.944 1.6 4.384-26.826 23.016-67.23 19.928-90.247-6.898-23.016-26.826-19.928-67.23 6.898-90.246 23.975-20.571 59.374-20.571 83.349 0-.592 1.448-1.024 2.944-1.6 4.408-.648 1.72-1.296 3.44-1.864 5.192-.8 2.464-1.456 4.96-2.104 7.456-17.116-20.243-47.402-22.778-67.646-5.662-20.243 17.117-22.778 47.403-5.662 67.646zM297.52 360H182.48a111.907 111.907 0 0 1-44-48.8 111.104 111.104 0 0 1 0-94.312c25.942-56.046 92.407-80.45 148.453-54.508a111.827 111.827 0 0 1 54.508 54.508A110.942 110.942 0 0 1 352.001 264c0 4.073-.221 8.143-.664 12.192a110.457 110.457 0 0 1-9.832 35.008A111.844 111.844 0 0 1 297.52 360z"/></symbol>
  <symbol id="new-item" width="15" height="40"><path fill-rule="evenodd" fill="#ADD19A" d="M0 0h15v40H0V0z"/><path fill-rule="evenodd" fill="#FFF" d="M10.525 31.178H3.416v-1.465l4.687-2.857H3.416v-1.46h7.109v1.465l-4.678 2.852h4.678v1.465zM3.416 19.42h1.186v3.291h1.695v-2.813h1.147v2.813h1.904V19.41h1.177v4.766H3.416V19.42zm0-2.241l5.048-.962-5.048-1.172v-1.24l5.058-1.167-5.058-.957v-1.46l7.109 1.577v1.474L5.769 14.43l4.756 1.157v1.474l-7.109 1.578v-1.46z"/></symbol>
  <symbol id="hot-item" width="15" height="40"><path fill-rule="evenodd" fill="#EFBF88" d="M0 0h15v40H0V0z"/><path fill-rule="evenodd" fill="#FFF" d="M5.118 16.039H3.932v-5.791h1.186v2.178h5.923v1.465H5.118v2.148zm-.857 1.755c.285-.46.694-.817 1.226-1.069s1.147-.378 1.843-.378h.318c.699 0 1.313.123 1.84.371.528.247.935.601 1.221 1.062.287.46.43.989.43 1.584 0 .589-.142 1.115-.425 1.577a2.821 2.821 0 0 1-1.213 1.075c-.526.254-1.131.382-1.814.385h-.352c-.7 0-1.316-.126-1.848-.378a2.822 2.822 0 0 1-1.226-1.069c-.285-.461-.427-.987-.427-1.58 0-.592.142-1.119.427-1.58zm1.358 2.718c.382.267.943.402 1.682.405h.347c.725 0 1.289-.133 1.689-.4.4-.267.601-.651.601-1.153 0-.491-.193-.869-.579-1.133-.386-.263-.948-.397-1.687-.4h-.347c-.745 0-1.312.134-1.699.4-.387.267-.581.648-.581 1.143 0 .492.191.871.574 1.138zm5.422 4.355H7.994v2.857h3.047v1.464H3.932v-1.464h2.881v-2.857H3.932v-1.465h7.109v1.465z"/></symbol>
  <symbol id="sale-item" width="15" height="40"><path fill-rule="evenodd" fill="#E2939A" d="M0 0h15v40H0V0z"/><path fill-rule="evenodd" fill="#FFF" d="M3.916 22.273l7.109-2.661v1.558l-1.465.493v2.568l1.465.489v1.557l-7.109-2.646v-1.358zm4.458 1.563v-1.777l-2.661.893 2.661.884zM3.916 17.21h5.932V14.1h1.177v4.575H3.916V17.21zm0-8.291h1.186v3.291h1.695V9.397h1.147v2.813h1.904V8.909h1.177v4.766H3.916V8.919zm.957 17.932c.335-.22.716-.33 1.142-.33v1.465c-.325 0-.578.103-.759.308-.181.205-.271.493-.271.864 0 .358.076.637.227.835a.715.715 0 0 0 .598.298c.231 0 .425-.116.581-.349.157-.233.303-.576.44-1.028.25-.833.561-1.44.932-1.821s.834-.572 1.387-.572c.615 0 1.098.233 1.448.699.35.465.525 1.092.525 1.88 0 .546-.1 1.044-.301 1.494-.2.449-.474.792-.822 1.027a2.101 2.101 0 0 1-1.211.354v-1.469c.784 0 1.176-.469 1.176-1.406 0-.349-.07-.621-.212-.816a.692.692 0 0 0-.593-.293c-.277 0-.489.098-.637.293-.148.195-.305.547-.469 1.055-.164.508-.326.91-.486 1.206-.436.807-1.024 1.211-1.763 1.211-.384 0-.726-.108-1.028-.325-.301-.216-.536-.527-.705-.933a3.512 3.512 0 0 1-.254-1.364c0-.508.092-.961.276-1.358.184-.397.443-.705.779-.925z"/></symbol>
  <symbol id="whyus_1" viewBox="0 0 58 58"><g fill="#5e3118"><path d="M41.528 5.884L55 19.356l-.528.528H58v-14zM24.174 5.884H7a7 7 0 1 0 0 14h4.23l-.528-.528L24.174 5.884z"/></g><g fill="#77442b"><path d="M16.543 8.367a51.15 51.15 0 0 1-1.961.104 1 1 0 0 0 .035 1.999l.037-.001a53.084 53.084 0 0 0 2.037-.108 1 1 0 0 0-.148-1.994zM10.588 8.569c-.696.02-1.379.045-2.034.086a1 1 0 1 0 .123 1.996 57.082 57.082 0 0 1 1.966-.082c.552-.016.987-.475.973-1.027s-.492-.947-1.028-.973zM4.359 9.319c-.907.297-1.602.694-2.12 1.213a.999.999 0 1 0 1.414 1.414c.288-.287.734-.532 1.329-.727a1 1 0 0 0-.623-1.9zM50 8.884h-2a1 1 0 1 0 0 2h2a1 1 0 1 0 0-2zM56 8.884h-2a1 1 0 1 0 0 2h2a1 1 0 1 0 0-2z"/></g><path d="M55.556 19.884L35.8.156a.139.139 0 0 0-.196 0L15.849 19.884h39.707z" fill="#eaead6"/><path d="M15.876 19.884L32.851 2.909 30.098.156a.139.139 0 0 0-.196 0L10.147 19.884h5.729z" fill="#bfbda3"/><path d="M47.331 20.509l.309-.309L35.759 8.335a.08.08 0 0 0-.115 0L23.769 20.2l.309.309h23.253z" fill="#6d8c60"/><path d="M0 12.884v38.848a6.152 6.152 0 0 0 6.152 6.152H58v-38H7a7 7 0 0 1-7-7z" fill="#77442b"/><path d="M52 24.884h-2a1 1 0 1 1 0-2h2a1 1 0 1 1 0 2zm-6 0h-2a1 1 0 1 1 0-2h2a1 1 0 1 1 0 2zm-6 0h-2a1 1 0 1 1 0-2h2a1 1 0 1 1 0 2zm-6 0h-2a1 1 0 1 1 0-2h2a1 1 0 1 1 0 2zm-6 0h-2a1 1 0 1 1 0-2h2a1 1 0 1 1 0 2zm-6 0h-2a1 1 0 1 1 0-2h2a1 1 0 1 1 0 2zm-6 0h-2a1 1 0 1 1 0-2h2a1 1 0 1 1 0 2zm-6 0H8a1 1 0 1 1 0-2h2a1 1 0 1 1 0 2zm-5.909-.63a.99.99 0 0 1-.415-.091 8.008 8.008 0 0 1-1.914-1.231 1.002 1.002 0 0 1 1.31-1.513c.433.376.916.687 1.436.925a1 1 0 0 1-.417 1.91zM52 54.884h-2a1 1 0 1 1 0-2h2a1 1 0 1 1 0 2zm-6 0h-2a1 1 0 1 1 0-2h2a1 1 0 1 1 0 2zm-6 0h-2a1 1 0 1 1 0-2h2a1 1 0 1 1 0 2zm-6 0h-2a1 1 0 1 1 0-2h2a1 1 0 1 1 0 2zm-6 0h-2a1 1 0 1 1 0-2h2a1 1 0 1 1 0 2zm-6 0h-2a1 1 0 1 1 0-2h2a1 1 0 1 1 0 2zm-6 0h-2a1 1 0 1 1 0-2h2a1 1 0 1 1 0 2zm-6 0H8a1 1 0 1 1 0-2h2a1 1 0 1 1 0 2zm-5.909-.63a.99.99 0 0 1-.415-.091 8.008 8.008 0 0 1-1.914-1.231 1.002 1.002 0 0 1 1.31-1.513c.433.376.916.687 1.436.925a1 1 0 0 1-.417 1.91z" fill="#91553d"/><path d="M58 45.051H46a6 6 0 1 1 0-12h12v12z" fill="#6d3d25"/><path d="M58 43.884H46a6 6 0 1 1 0-12h12v12z" fill="#5e3118"/><circle cx="47" cy="37.884" r="3" fill="#e4c05c"/></symbol>
  <symbol id="whyus_2" viewBox="0 0 60 60"><path fill="#f0c419" d="M47 41.878h10v14H47z"/><path fill="#f29c1f" d="M32 32.878h10v23H32z"/><path fill="#e57e25" d="M17 24.878h10v31H17z"/><path fill="#d25627" d="M2 16.878h10v39H2z"/><path d="M59 56.878H1a1 1 0 1 1 0-2h58a1 1 0 1 1 0 2z" fill="#556080"/><path d="M51.251 27.623a.997.997 0 0 1-.499-.134l-38.971-22.5a1 1 0 1 1 1-1.732l38.971 22.5a1 1 0 0 1-.501 1.866z" fill="#d1d4d1"/><path d="M42.689 28.453a1 1 0 0 1-.096-1.995l8.563-.83a.993.993 0 0 1 1.092.898 1 1 0 0 1-.898 1.092l-8.563.83a1.11 1.11 0 0 1-.098.005z" fill="#d1d4d1"/><path d="M51.253 27.623c-.38 0-.743-.218-.911-.586l-3.563-7.83a.999.999 0 1 1 1.82-.828l3.563 7.83a.999.999 0 0 1-.909 1.414z" fill="#d1d4d1"/></symbol>
  <symbol id="whyus_3" viewBox="0 0 58 58"><path d="M0 3v44h38v-7.305C39.593 41.124 41.692 42 44 42s4.407-.876 6-2.305V47h8V3H0z" fill="#f0ede0"/><circle cx="44" cy="33" r="9" fill="#ddc043"/><path d="M44 42a8.955 8.955 0 0 1-6-2.305V55l6-6 6 6V39.695A8.955 8.955 0 0 1 44 42z" fill="#f3d55b"/><g fill="#d6d1bb"><path d="M54 24a1 1 0 0 1-1-1v-1a1 1 0 1 1 2 0v1a1 1 0 0 1-1 1zM54 17.167a1 1 0 0 1-1-1v-2.333a1 1 0 1 1 2 0v2.333a1 1 0 0 1-1 1zM54 9a1 1 0 0 1-1-1 1 1 0 1 1 0-2h2v2a1 1 0 0 1-1 1zM47.894 8h-2.042a1 1 0 1 1 0-2h2.042a1 1 0 1 1 0 2zm-7.149 0h-2.042a1 1 0 1 1 0-2h2.042a1 1 0 1 1 0 2zm-7.149 0h-2.042a1 1 0 1 1 0-2h2.042a1 1 0 1 1 0 2zm-7.149 0h-2.042a1 1 0 1 1 0-2h2.042a1 1 0 1 1 0 2zm-7.149 0h-2.042a1 1 0 1 1 0-2h2.042a1 1 0 1 1 0 2zm-7.149 0h-2.042a1 1 0 1 1 0-2h2.042a1 1 0 1 1 0 2zM4 9a1 1 0 0 1-1-1V6h2a1 1 0 1 1 0 2 1 1 0 0 1-1 1zM4 37.849a1 1 0 0 1-1-1v-2.061a1 1 0 1 1 2 0v2.061a1 1 0 0 1-1 1zm0-7.213a1 1 0 0 1-1-1v-2.061a1 1 0 1 1 2 0v2.061a1 1 0 0 1-1 1zm0-7.212a1 1 0 0 1-1-1v-2.061a1 1 0 1 1 2 0v2.061a1 1 0 0 1-1 1zm0-7.212a1 1 0 0 1-1-1v-2.061a1 1 0 1 1 2 0v2.061a1 1 0 0 1-1 1zM5 44H3v-2a1 1 0 1 1 2 0 1 1 0 1 1 0 2zM26 44h-2a1 1 0 1 1 0-2h2a1 1 0 1 1 0 2zm-7 0h-2a1 1 0 1 1 0-2h2a1 1 0 1 1 0 2zm-7 0h-2a1 1 0 1 1 0-2h2a1 1 0 1 1 0 2zM32 44h-1a1 1 0 1 1 0-2h1a1 1 0 1 1 0 2z"/></g><path d="M18 18a1 1 0 1 0 2 0 5.01 5.01 0 0 0-4-4.899V12a1 1 0 1 0-2 0v1.104a4.985 4.985 0 0 0-2.818 1.668 3.438 3.438 0 0 0-.794 2.603 3.65 3.65 0 0 0 1.383 2.491L14 21.6v5.438a2.996 2.996 0 0 1-2-2.816 1 1 0 1 0-2 0 5.01 5.01 0 0 0 4 4.899V30a1 1 0 1 0 2 0v-.882a4.991 4.991 0 0 0 2.819-1.668 3.444 3.444 0 0 0 .793-2.605 3.646 3.646 0 0 0-1.383-2.488L16 20.623v-5.438c1.161.413 2 1.513 2 2.815zm-.999 5.935c.349.271.576.68.622 1.118.043.41-.075.803-.331 1.105a2.988 2.988 0 0 1-1.292.875v-3.878l1.001.78zm-4.002-5.647a1.642 1.642 0 0 1-.622-1.12 1.46 1.46 0 0 1 .331-1.104A2.988 2.988 0 0 1 14 15.189v3.877l-1.001-.778z" fill="#24ae5f"/><g fill="#d4c3a5"><path d="M47 15H24a1 1 0 1 0 0 2h23a1 1 0 1 0 0-2zM35 21H24a1 1 0 1 0 0 2h11a1 1 0 1 0 0-2zM32 27h-8a1 1 0 1 0 0 2h8a1 1 0 1 0 0-2zM31 34H10a1 1 0 1 0 0 2h21a1 1 0 1 0 0-2z"/></g><circle cx="44" cy="33" r="5" fill="#f9eab0"/></symbol>
  <symbol id="whyus_4" viewBox="0 0 512 512"><path fill="#b4e1fa" d="M441.379 220.69h-97.103v-88.276h79.448z"/><path d="M17.655 370.759h476.69a8.829 8.829 0 0 0 8.828-8.828v-61.793H8.828v61.793a8.828 8.828 0 0 0 8.827 8.828z" fill="#707487"/><path fill="#5b5d6e" d="M344.276 300.138V158.897h-35.31v141.241H8.828v35.31h494.344v-35.31z"/><g fill="#ffd782"><path d="M8.828 79.448h300.138a8.829 8.829 0 0 1 8.828 8.828v211.862a8.829 8.829 0 0 1-8.828 8.828H8.828A8.829 8.829 0 0 1 0 300.138V88.276a8.829 8.829 0 0 1 8.828-8.828zM490.367 225.858l-41.22-11.777-12.785-70.339c-3.06-16.793-17.673-28.983-34.741-28.983h-57.345a8.823 8.823 0 0 0-8.828 8.828v158.897h167.724v-39.649a17.655 17.655 0 0 0-12.805-16.977zm-119.608-13.996c-9.751 0-17.655-7.904-17.655-17.655v-44.138a8.829 8.829 0 0 1 8.828-8.828H410.7a8.827 8.827 0 0 1 8.687 7.262l10.326 57.292c.569 3.16-1.859 6.067-5.07 6.067h-53.884z"/></g><circle cx="414.897" cy="379.586" r="52.966" fill="#464655"/><circle cx="414.897" cy="379.586" r="35.31" fill="#c7cfe2"/><circle cx="414.897" cy="379.586" r="13.241" fill="#afb9d2"/><circle cx="88.276" cy="379.586" r="52.966" fill="#464655"/><circle cx="88.276" cy="379.586" r="35.31" fill="#c7cfe2"/><circle cx="88.276" cy="379.586" r="13.241" fill="#afb9d2"/><path d="M344.276 361.931h3.372c3.343 0 6.4-1.889 7.895-4.879l19.164-38.326a17.652 17.652 0 0 1 15.791-9.76h48.798a17.654 17.654 0 0 1 15.791 9.76l19.164 38.326a8.827 8.827 0 0 0 7.895 4.879h21.026a8.829 8.829 0 0 0 8.828-8.828V291.31c0-9.751-7.904-17.655-17.655-17.655H335.448v79.448a8.829 8.829 0 0 0 8.828 8.828z" fill="#ffc36e"/><path d="M308.966 388.414H220.69a8.829 8.829 0 0 1-8.828-8.828v-35.31a8.829 8.829 0 0 1 8.828-8.828h88.276a8.829 8.829 0 0 1 8.828 8.828v35.31a8.83 8.83 0 0 1-8.828 8.828z" fill="#afb9d2"/><g fill="#959cb3"><path d="M247.172 353.103a8.829 8.829 0 0 0-8.828 8.828v26.483H256v-26.483a8.829 8.829 0 0 0-8.828-8.828zM282.483 353.103a8.829 8.829 0 0 0-8.828 8.828v26.483h17.655v-26.483a8.828 8.828 0 0 0-8.827-8.828z"/></g><path d="M291.31 291.31H26.483a8.829 8.829 0 0 1 0-17.656H291.31a8.828 8.828 0 0 1 0 17.656z" fill="#ffc36e"/></symbol>
  <symbol id="repair_1" viewBox="-60 0 512 512" fill="currentColor"><path d="M196.266 0C122.938.008 55.73 40.895 22.008 106.012c-33.723 65.117-28.332 143.597 13.976 203.492C14.598 316.195.027 335.992 0 358.398v102.403C.027 489.066 22.934 511.973 51.2 512h290.132c28.266-.027 51.172-22.934 51.203-51.2V358.399c-.031-22.406-14.601-42.203-35.988-48.894 42.308-59.895 47.7-138.375 13.98-203.492C336.805 40.895 269.597.008 196.266 0zm0 17.066c68.664-.027 131.3 39.2 161.257 100.985 29.954 61.785 21.957 135.258-20.593 189.148h-61.442c48.352-34.465 68.887-96.226 50.793-152.781-18.094-56.555-70.664-94.93-130.039-94.93-59.379 0-111.949 38.375-130.043 94.93-18.09 56.555 2.442 118.316 50.793 152.781H55.551C12.996 253.301 5.004 179.816 34.973 118.027c29.965-61.789 92.62-101.007 161.293-100.96zM152.106 307.2C98.855 286.016 68.147 230 78.933 173.715c10.785-56.29 60.023-96.988 117.332-96.988 57.312 0 106.547 40.699 117.332 96.988 10.785 56.285-19.918 112.3-73.172 133.484zm223.359 110.934H17.066v-17.067h358.399zm-34.133 76.8H51.199c-15.515-.058-29.043-10.574-32.922-25.601h246.258c4.711 0 8.531-3.82 8.531-8.531a8.533 8.533 0 0 0-8.53-8.535H17.065v-17.067h358.399v17.067h-76.797a8.534 8.534 0 1 0 0 17.066h75.586c-3.879 15.027-17.402 25.543-32.922 25.602zm32.922-145.066h-254.79a8.532 8.532 0 0 0-8.53 8.531 8.533 8.533 0 0 0 8.53 8.536h256V384H17.067v-17.066h68.266a8.534 8.534 0 1 0 0-17.067H18.277c3.88-15.023 17.407-25.543 32.922-25.601h290.133c15.52.058 29.043 10.578 32.922 25.601zm0 0"/><path d="M274.629 262.059a102.514 102.514 0 0 0 17.484-30.07v-.051c.13-.223.13-.473.239-.704a100.489 100.489 0 0 0 0-69.972c-.11-.23-.11-.477-.239-.7-12.785-34.16-42.746-58.96-78.695-65.132h-.086a95.452 95.452 0 0 0-34.133 0h-.086a102.55 102.55 0 0 0-78.691 65.133c-.129.222-.129.468-.242.699a100.533 100.533 0 0 0 0 69.972c.113.23.113.48.242.704v.05a102.428 102.428 0 0 0 17.484 30.07 8.687 8.687 0 0 0 1.477 1.622 102.236 102.236 0 0 0 59.73 33.433h.086a95.452 95.452 0 0 0 34.133 0h.086a102.257 102.257 0 0 0 59.734-33.433 8.687 8.687 0 0 0 1.477-1.621zm-156.082-30.72l43.586-25.218 1.945 1.121a33.959 33.959 0 0 0 6.59 11.363v2.204l-43.574 25.222a85.015 85.015 0 0 1-8.547-14.726zm-7.613-35.073a85.407 85.407 0 0 1 2.082-18.524l32.05 18.524-32.086 18.527a85.407 85.407 0 0 1-2.046-18.527zm16.16-49.766l43.574 25.227v2.199a33.944 33.944 0 0 0-6.563 11.367l-1.972 1.117-43.613-25.18a85.04 85.04 0 0 1 8.574-14.73zm146.894 14.73l-43.59 25.18-1.945-1.117a33.966 33.966 0 0 0-6.586-11.367v-2.2l43.57-25.226a85.214 85.214 0 0 1 8.551 14.73zm7.614 35.036a85.686 85.686 0 0 1-2.082 18.527l-32.055-18.527 32.086-18.524a85.646 85.646 0 0 1 2.05 18.524zm-102.403 0c0-9.426 7.64-17.067 17.067-17.067s17.066 7.64 17.066 17.067-7.64 17.066-17.066 17.066-17.067-7.64-17.067-17.066zm42.668-44.27v-37.129a85.244 85.244 0 0 1 31.992 18.621zm-83.191-18.508a85.214 85.214 0 0 1 31.992-18.62v37.128zm31.992 107.051v37.129a85.214 85.214 0 0 1-31.992-18.621zm51.2-19.73v-2.204a33.955 33.955 0 0 0 6.562-11.363l1.968-1.12 43.618 25.183a85.208 85.208 0 0 1-8.536 14.726zm31.991 38.238a85.244 85.244 0 0 1-31.992 18.621v-37.129zm-49.058-147.68v50.512l-1.656.953a34.179 34.179 0 0 0-13.766 0l-1.645-.953v-50.512a84.184 84.184 0 0 1 17.067 0zm-17.067 169.817v-50.528l1.657-.957a34.16 34.16 0 0 0 13.761 0l1.649.957v50.508a83.622 83.622 0 0 1-17.067 0zm0 0M68.266 110.934a8.538 8.538 0 0 0 6.828-3.414 159.454 159.454 0 0 1 50.672-41.668 8.534 8.534 0 1 0-8.153-14.993 176.305 176.305 0 0 0-56.172 46.422 8.525 8.525 0 0 0-.808 8.934 8.538 8.538 0 0 0 7.633 4.719zm0 0M162.133 42.668c0 4.71-3.82 8.531-8.531 8.531a8.533 8.533 0 1 1 0-17.066c4.71 0 8.53 3.82 8.53 8.535zm0 0"/></symbol>
  <symbol id="repair_2" viewBox="0 0 480 480" fill="currentColor"><path d="M456 0h-80c-13.254 0-24 10.746-24 24v32h-65.473A24.003 24.003 0 0 0 264 40h-48a24.003 24.003 0 0 0-22.527 16H128V24c0-13.254-10.746-24-24-24H24C10.746 0 0 10.746 0 24v112c0 13.254 10.746 24 24 24h80c13.254 0 24-10.746 24-24v-32h65.473A24.003 24.003 0 0 0 216 120v48h-8a8 8 0 0 0-8 8v152h-16a8 8 0 0 0-8 8v40h-48v-32c0-13.254-10.746-24-24-24H24c-13.254 0-24 10.746-24 24v112c0 13.254 10.746 24 24 24h80c13.254 0 24-10.746 24-24v-32h48v24a8 8 0 0 0 8 8h112a8 8 0 0 0 8-8v-24h48v32c0 13.254 10.746 24 24 24h80c13.254 0 24-10.746 24-24V344c0-13.254-10.746-24-24-24h-80c-13.254 0-24 10.746-24 24v32h-48v-40a8 8 0 0 0-8-8h-16V176a8 8 0 0 0-8-8h-8v-48a24.003 24.003 0 0 0 22.527-16H352v32c0 13.254 10.746 24 24 24h80c13.254 0 24-10.746 24-24V24c0-13.254-10.746-24-24-24zm-46.398 44.8a7.998 7.998 0 0 0 12.796 0L432 32v21.336l-16 21.328-16-21.328V32zM408 16h16l-8 10.664zm-8 64l9.602 12.8a7.998 7.998 0 0 0 12.796 0L432 80v21.336l-16 21.328-16-21.328zM57.602 44.8a7.998 7.998 0 0 0 12.796 0L80 32v21.336L64 74.664 48 53.336V32zM56 16h16l-8 10.664zm-8 64l9.602 12.8a7.998 7.998 0 0 0 12.796 0L80 80v21.336l-16 21.328-16-21.328zm-32 56V24a8 8 0 0 1 8-8h8v128h-8a8 8 0 0 1-8-8zm32 8v-16l9.602 12.8a7.998 7.998 0 0 0 12.796 0L80 128v16zm64-8a8 8 0 0 1-8 8h-8V16h8a8 8 0 0 1 8 8zm16-64h64v16h-64zM57.602 364.8a7.998 7.998 0 0 0 12.796 0L80 352v21.336l-16 21.328-16-21.328V352zM56 336h16l-8 10.664zm-8 64l9.602 12.8a7.998 7.998 0 0 0 12.796 0L80 400v21.336l-16 21.328-16-21.328zm-32 56V344a8 8 0 0 1 8-8h8v128h-8a8 8 0 0 1-8-8zm32 8v-16l9.602 12.8a7.998 7.998 0 0 0 12.796 0L80 448v16zm64-8a8 8 0 0 1-8 8h-8V336h8a8 8 0 0 1 8 8zm16-48v-16h48v16zm272-8l9.602 12.8a7.998 7.998 0 0 0 12.796 0L432 400v21.336l-16 21.328-16-21.328zm9.602-35.2a7.998 7.998 0 0 0 12.796 0L432 352v21.336l-16 21.328-16-21.328V352zM408 336h16l-8 10.664zm-8 128v-16l9.602 12.8a7.998 7.998 0 0 0 12.796 0L432 448v16zm64-120v112a8 8 0 0 1-8 8h-8V336h8a8 8 0 0 1 8 8zm-96 0a8 8 0 0 1 8-8h8v128h-8a8 8 0 0 1-8-8zm-16 48v16h-48v-16zm-80-48h16v96h-96v-96h16a8 8 0 0 0 8-8V184h48v152a8 8 0 0 0 8 8zm-24-176h-16v-48h16zm16-64h-48a8 8 0 0 1-8-8V64a8 8 0 0 1 8-8h48a8 8 0 0 1 8 8v32a8 8 0 0 1-8 8zm24-16V72h64v16zm80 48V24a8 8 0 0 1 8-8h8v128h-8a8 8 0 0 1-8-8zm32 8v-16l9.602 12.8a7.998 7.998 0 0 0 12.796 0L432 128v16zm64-8a8 8 0 0 1-8 8h-8V16h8a8 8 0 0 1 8 8zm0 0"/><path d="M216 408a8 8 0 0 0 0 16h48a8 8 0 0 0 0-16zm0 0M248 72h-16a8 8 0 0 0 0 16h16a8 8 0 0 0 0-16zm0 0"/></symbol>
  <symbol id="repair_3" viewBox="0 -63 480 479" fill="currentColor"><path d="M471.586 141.973A8.007 8.007 0 0 0 464 136.5h-32a8 8 0 0 0-8 8v40h-16v-64a8 8 0 0 0-8-8h-64v-40a8 8 0 0 0-8-8h-56v-16h104a8 8 0 0 0 8-8v-32a8 8 0 0 0-8-8H120a8 8 0 0 0-8 8v32a8 8 0 0 0 8 8h104v16h-56a8 8 0 0 0-8 8v43.719L117.602 144.5H72a8 8 0 0 0-8 8v24H48v-64a8 8 0 0 0-8-8H8a8 8 0 0 0-8 8v200a8 8 0 0 0 8 8h32a8 8 0 0 0 8-8v-56h16v24a8 8 0 0 0 8 8h45.602l45.984 30.656A8.036 8.036 0 0 0 168 320.5h16v24a8 8 0 0 0 8 8h112a8 8 0 0 0 8-8v-24h88a8 8 0 0 0 8-8v-64h16v40a8 8 0 0 0 8 8h32a8.007 8.007 0 0 0 7.586-5.473l8-24c.273-.812.41-1.668.414-2.527v-96a8.043 8.043 0 0 0-.414-2.527zM128 16.5h240v16H128zm112 32h16v16h-16zm-208 256H16v-184h16zm16-64v-48h16v48zm76.441 33.344A8.061 8.061 0 0 0 120 272.5H80v-112h32v48a8 8 0 0 0 16 0v-51.719l44.441-29.601A8 8 0 0 0 176 120.5v-40h144v32h-80a8 8 0 0 0 0 16h120v176H170.398zM296 336.5h-96v-16h96zm96-32h-16v-176h16zm16-72v-32h16v32zm56 30.703l-5.77 17.297H440v-128h18.23l5.77 17.297zm0 0"/><path d="M200 128.5h8a8 8 0 0 0 0-16h-8a8 8 0 0 0 0 16zm0 0M120 232.5a8 8 0 0 0-8 8v8a8 8 0 0 0 16 0v-8a8 8 0 0 0-8-8zm0 0M152 176.5h184a8 8 0 0 0 0-16H152a8 8 0 0 0 0 16zm0 0M152 208.5h184a8 8 0 0 0 0-16H152a8 8 0 0 0 0 16zm0 0M152 240.5h184a8 8 0 0 0 0-16H152a8 8 0 0 0 0 16zm0 0M344 264.5a8 8 0 0 0-8-8H152a8 8 0 0 0 0 16h184a8 8 0 0 0 8-8zm0 0"/></symbol>
  <symbol id="repair_4" viewBox="0 0 480 480" fill="currentColor"><path d="M24 272c13.254 0 24-10.746 24-24v-8h16v16a8 8 0 0 0 8 8h14.336L59.762 403.512a23.992 23.992 0 0 0 5.086 19.789A23.988 23.988 0 0 0 83.336 432H96v24a8 8 0 0 0 8 8h128v8a8 8 0 0 0 16 0v-16a8 8 0 0 0-8-8H112v-16h18.762c11.523 0 21.418-8.191 23.574-19.512L173.48 312H192v8a8 8 0 0 0 16 0v-32a8 8 0 0 0-16 0v8h-15.473l6.098-32H376a8 8 0 0 0 8-8v-24h24a8 8 0 0 0 8-8v-32a8 8 0 0 0-8-8h-24v-24a8 8 0 0 0-8-8h-80v-21.785l22.855-38.094A7.983 7.983 0 0 0 320 88V8a8 8 0 0 0-8-8h-80a8 8 0 0 0-8 8v80c.02.945.21 1.875.559 2.754.09.238.457 1.148.586 1.367L248 130.215V152H72a8 8 0 0 0-8 8v16H48v-8c0-13.254-10.746-24-24-24S0 154.746 0 168v80c0 13.254 10.746 24 24 24zm114.617 137.496a7.998 7.998 0 0 1-7.855 6.504H83.336a7.987 7.987 0 0 1-6.16-2.902 7.997 7.997 0 0 1-1.696-6.594L102.625 264h63.71zM400 200v16h-16v-16zM304 16v69.785L283.473 120h-22.946L246.13 96H272a8 8 0 0 0 0-16h-32V64h32a8 8 0 0 0 0-16h-32V16zm-40 120h16v16h-16zm-32 32v16a8 8 0 0 0 16 0v-16h16v24a8 8 0 0 0 16 0v-24h16v16a8 8 0 0 0 16 0v-16h24v24c0 13.254-10.746 24-24 24h-80c-13.254 0-24-10.746-24-24v-24zm-152 0h112v24c.027 22.082 17.918 39.973 40 40h80c22.082-.027 39.973-17.918 40-40v-24h16v80H80zm-16 24v32H48v-32zm-48-24a8 8 0 0 1 16 0v80a8 8 0 0 1-16 0zm0 0M472 200h-32a8 8 0 0 0 0 16h32a8 8 0 0 0 0-16zm0 0M440 184a7.864 7.864 0 0 0 1.953-.238l32-8a8 8 0 0 0 5.758-9.692c-1.066-4.265-5.375-6.867-9.649-5.832l-32 8a8.005 8.005 0 0 0-5.992 8.739A7.995 7.995 0 0 0 440 184zm0 0M470.055 255.762a7.995 7.995 0 0 0 9.875-6.785 8.005 8.005 0 0 0-5.993-8.739l-32-8a8.006 8.006 0 0 0-7.734 2.172 8 8 0 0 0 3.844 13.352zm0 0"/><path d="M160 200h8a8 8 0 0 0 0-16h-8a8 8 0 0 0 0 16zm0 0M120 200h8a8 8 0 0 0 0-16h-8a8 8 0 0 0 0 16zm0 0M102.328 399.824c4.32.922 8.574-1.832 9.496-6.152l24-112c.922-4.32-1.832-8.574-6.152-9.496s-8.574 1.832-9.496 6.152l-24 112c-.922 4.32 1.832 8.574 6.152 9.496zm0 0"/></symbol>
  <symbol id="repair_5" viewBox="0 0 480.272 480.272" fill="currentColor"><path d="M480 104.976a106.6 106.6 0 0 0-43.28-87.296 8 8 0 0 0-12.192 3.584l-37.256 96.864-32.696-10.896 38.064-95.096a7.999 7.999 0 0 0-6.4-10.903C327.214-6.744 272.897 34.64 264.92 93.666a107.847 107.847 0 0 0 31.72 91.791A78.4 78.4 0 0 1 320 241.489v186.648c0 28.719 23.281 52 52 52s52-23.281 52-52V241.512a81.236 81.236 0 0 1 24.568-57.336 146.922 146.922 0 0 0 22.464-28.224v-.048A106.255 106.255 0 0 0 480 104.976zm-42.808 67.864A97.131 97.131 0 0 0 408 241.512v186.624c0 19.882-16.118 36-36 36s-36-16.118-36-36V241.488a94.502 94.502 0 0 0-28.168-67.544A90.918 90.918 0 0 1 280 105.552c1.987-48.021 40.115-86.683 88.104-89.336 1.064-.08 2.136-.08 3.224-.08h2.4l-37.2 92.976a8 8 0 0 0 4.904 10.568l48 16 62.12 20.704a166.851 166.851 0 0 1-14.36 16.456zm22.44-30.592l-57.16-19.056 33.008-85.816a91.48 91.48 0 0 1 28.52 67.6 110.124 110.124 0 0 1-4.368 37.272z"/><path d="M336 160.136a8 8 0 0 0-8 8v8a8 8 0 0 0 16 0v-8a8 8 0 0 0-8-8zM368 160.136a8 8 0 0 0-8 8v8a8 8 0 0 0 16 0v-8a8 8 0 0 0-8-8zM400 160.136a8 8 0 0 0-8 8v8a8 8 0 0 0 16 0v-8a8 8 0 0 0-8-8zM372 408.136c-11.046 0-20 8.954-20 20s8.954 20 20 20 20-8.954 20-20-8.954-20-20-20zm0 24a4 4 0 1 1 0-8 4 4 0 0 1 0 8zM240 24.136h-64v-16a8 8 0 0 0-8-8H88a8 8 0 0 0-8 8v16a8.001 8.001 0 0 0-3.888 1.008l-72 40A8 8 0 0 0 0 72.136v64a8 8 0 0 0 8 8h72v328a8 8 0 0 0 8 8h80a8 8 0 0 0 8-8v-328h64a8 8 0 0 0 8-8v-104a8 8 0 0 0-8-8zm-144-8h64v8H96v-8zm64 448H96v-32h64v32zm0-48H96v-16h64v16zm0-32H96v-16h64v16zm0-32H96v-16h64v16zm0-32H96v-16h64v16zm0-32H96v-144h64v144zm72-160H16V76.84l66.072-36.704H232v88z"/></symbol>
  <symbol id="repair_6" viewBox="0 0 480 480" fill="currentColor"><path d="M152 64c-25.879 0-46.09 7.824-60.047 23.258C68.391 113.289 71.88 151.19 72.04 152.8A8 8 0 0 0 80 160h144a8.002 8.002 0 0 0 8-7.2c.16-1.6 3.648-39.51-19.91-65.542C198.09 71.824 177.879 64 152 64zm14.129 80l16.726-27.879a8.001 8.001 0 0 0-13.71-8.242L147.473 144H87.824a72.685 72.685 0 0 1 16.055-46.09A62.022 62.022 0 0 1 152 80a62.022 62.022 0 0 1 48.121 17.91A72.685 72.685 0 0 1 216.176 144zm0 0M80 72V48h24a8 8 0 0 0 0-16H72a8 8 0 0 0-8 8v32a8 8 0 0 0 16 0zm0 0M232 32h-32a8 8 0 0 0 0 16h24v24a8 8 0 0 0 16 0V40a8 8 0 0 0-8-8zm0 0M144 48h16a8 8 0 0 0 0-16h-16a8 8 0 0 0 0 16zm0 0M80 320h-8a8 8 0 0 0 0 16h8a8 8 0 0 0 0-16zm0 0M216 328a8 8 0 0 0 8 8h8a8 8 0 0 0 0-16h-8a8 8 0 0 0-8 8zm0 0"/><path d="M472 104h-16V72a8 8 0 0 0-16 0v32h-16a8 8 0 0 0-8 8v64a8 8 0 0 0 8 8h16v280H160v-64h32v32a8 8 0 0 0 8 8h168a8 8 0 0 0 8-8V184h16a8 8 0 0 0 8-8v-64a8 8 0 0 0-8-8h-16V72a8 8 0 0 0-16 0v32h-16a8 8 0 0 0-8 8v64a8 8 0 0 0 8 8h16v240H208v-24h16a8 8 0 0 0 8-8v-24h32a8 8 0 0 0 8-8V224h24a8 8 0 0 0 8-8v-32a8 8 0 0 0-8-8h-24V8a8 8 0 0 0-8-8H40a8 8 0 0 0-8 8v168H8a8 8 0 0 0-8 8v32a8 8 0 0 0 8 8h24v136a8 8 0 0 0 8 8h80v24a8 8 0 0 0 8 8h16v72a8 8 0 0 0 8 8h296a8 8 0 0 0 8-8V184h16a8 8 0 0 0 8-8v-64a8 8 0 0 0-8-8zm-120 16h32v48h-32zM216 384h-32v-16h32zM48 16h208v160H48zM16 192h272v16H16zm32 32h208v128H48zm88 144h32v16h-32zm328-200h-32v-48h32zm0 0"/><path d="M152 336a47.913 47.913 0 0 0 41.488-24h9.254c13.258 0 24-10.746 24-24s-10.742-24-24-24h-9.27a47.812 47.812 0 0 0-82.913 0H104c-13.254 0-24 10.746-24 24s10.746 24 24 24h6.527A47.951 47.951 0 0 0 152 336zm0-80a32 32 0 0 1 21.176 8H130.87A31.825 31.825 0 0 1 152 256zm-56 32a8 8 0 0 1 8-8h98.742c4.422 0 8 3.582 8 8s-3.578 8-8 8H104a8 8 0 0 1-8-8zm77.078 24c-12.062 10.668-30.183 10.668-42.246 0zm0 0"/></symbol>
  <symbol id="repair_7" viewBox="-9 0 512 512.003" fill="currentColor"><path d="M360.285 284.941l-.004-.011c-.031.02-.062.035-.094.054l.098-.043zm0 0"/><path d="M391.34 177.543H104.746c-11.164 0-20.246 9.082-20.246 20.246v16.832c0 32.625 17.402 61.258 43.41 77.11.707.761 1.52 1.425 2.445 1.945a90.3 90.3 0 0 0 44.106 11.52h146.617a90.303 90.303 0 0 0 25.067-3.555c.367-.106.73-.235 1.085-.383.614-.258 1.215-.508 1.801-.75a89.697 89.697 0 0 0 13.739-5.738l1.277-.532c.36-.148.715-.32 1.058-.515l.118-.067c.566-.324 1.09-.695 1.574-1.105 26.766-15.672 44.789-44.735 44.789-77.93V197.79c-.004-11.164-9.082-20.246-20.246-20.246zm-195.68 84.672a10.014 10.014 0 0 0 10.586-1.137l31.945-25.129.125 14.328a10.033 10.033 0 0 0 4.387 8.207 10.026 10.026 0 0 0 9.242 1.063l56.758-21.856-5.297 17.008a10.037 10.037 0 0 0 1.5 8.926 10.023 10.023 0 0 0 8.074 4.082h8.325c9.882 0 19.043 4.684 24.906 12.246-1.27.531-2.649 1.106-4.113 1.719a70.026 70.026 0 0 1-20.746 3.133H174.734a69.842 69.842 0 0 1-21.793-3.485l37.102-37.496-.02 9.356a10.024 10.024 0 0 0 5.637 9.035zm195.871-47.594c0 22.676-10.82 42.863-27.558 55.703-8.489-12.504-22.215-20.84-37.453-22.402l7.492-24.05a10.036 10.036 0 0 0-2.719-10.302 10.032 10.032 0 0 0-10.457-2.035l-62.594 24.102-.176-20.282a10.028 10.028 0 0 0-5.683-8.953 10.025 10.025 0 0 0-10.54 1.16l-31.726 24.958.028-13.118a10.03 10.03 0 0 0-6.207-9.289 10.016 10.016 0 0 0-10.946 2.219l-58.855 59.48c-17.883-12.73-29.586-33.613-29.586-57.19v-16.837c0-.105.086-.191.195-.191H391.34c.105 0 .191.086.191.191zm0 0M126.547 135.574a10.034 10.034 0 0 0 9.3 6.278c1.25 0 2.52-.235 3.75-.73 5.137-2.075 7.618-7.919 5.544-13.052l-.196-.488c-2.074-5.133-7.918-7.621-13.05-5.543-5.133 2.07-7.618 7.914-5.543 13.047zm0 0M174.219 324.582c-2.074-5.133-7.918-7.613-13.055-5.535-5.133 2.078-7.61 7.922-5.531 13.055l.195.488c1.578 3.898 5.336 6.265 9.3 6.265 1.25 0 2.524-.234 3.755-.734 5.137-2.074 7.613-7.918 5.535-13.055zm0 0M208.504 325.066l-.195-.484c-2.079-5.133-7.918-7.613-13.055-5.535-5.133 2.078-7.61 7.922-5.535 13.055l.199.488a10.03 10.03 0 0 0 9.297 6.265 9.959 9.959 0 0 0 3.758-.734c5.132-2.074 7.609-7.922 5.53-13.055zm0 0M242.594 325.066l-.2-.484c-2.074-5.133-7.917-7.613-13.054-5.535-5.133 2.078-7.61 7.922-5.531 13.055l.195.488c1.578 3.898 5.336 6.265 9.3 6.265 1.25 0 2.524-.234 3.755-.734 5.132-2.074 7.613-7.922 5.535-13.055zm0 0M276.68 325.066l-.196-.484c-2.078-5.133-7.918-7.613-13.054-5.535-5.133 2.078-7.61 7.922-5.535 13.055l.199.488a10.03 10.03 0 0 0 9.297 6.265 9.959 9.959 0 0 0 3.757-.734c5.133-2.074 7.61-7.922 5.532-13.055zm0 0M310.57 324.582c-2.074-5.133-7.918-7.613-13.054-5.535-5.133 2.078-7.61 7.922-5.532 13.055l.196.488c1.578 3.898 5.336 6.265 9.3 6.265 1.25 0 2.524-.234 3.754-.734 5.137-2.074 7.614-7.918 5.536-13.055zm0 0M344.66 324.582c-2.078-5.133-7.922-7.613-13.055-5.535-5.132 2.078-7.609 7.922-5.535 13.055l.2.488a10.03 10.03 0 0 0 9.296 6.265 9.959 9.959 0 0 0 3.758-.734c5.133-2.074 7.61-7.918 5.531-13.055zm0 0M237.18 14.27c1.574 3.906 5.332 6.277 9.3 6.277 1.247 0 2.52-.235 3.747-.73 5.136-2.075 7.617-7.919 5.546-13.051l-.199-.489c-2.07-5.132-7.914-7.62-13.047-5.543-5.136 2.07-7.62 7.914-5.547 13.047zm0 0M176.238 141.36H361.68c5.539 0 10.027-4.489 10.027-10.024 0-5.54-4.488-10.027-10.027-10.027H176.238a10.026 10.026 0 0 0-10.027 10.027c0 5.535 4.488 10.023 10.027 10.023zm0 0M212.617 369.164c-5.539 0-10.027 4.488-10.027 10.024v55.644c0 5.535 4.488 10.023 10.027 10.023 5.535 0 10.024-4.488 10.024-10.023v-55.644c0-5.536-4.489-10.024-10.024-10.024zm0 0M248.016 392.625c-5.54 0-10.028 4.492-10.028 10.027v32.18c0 5.535 4.489 10.023 10.028 10.023 5.535 0 10.023-4.488 10.023-10.023v-32.18c0-5.535-4.488-10.027-10.023-10.027zm0 0M283.523 377.207c-5.535 0-10.023 4.492-10.023 10.027v47.598c0 5.535 4.488 10.023 10.023 10.023 5.54 0 10.028-4.488 10.028-10.023v-47.598c0-5.535-4.489-10.027-10.028-10.027zm0 0"/><path d="M460.195 157.395l2.301-13.008a56.677 56.677 0 0 0-12.406-46.418 56.774 56.774 0 0 0-19.73-15.09c-4.63-41.11-60.352-73.79-141.598-82.211-5.5-.578-10.438 3.43-11.008 8.937-.57 5.508 3.43 10.434 8.941 11.004 63.63 6.602 111.793 29.754 121.942 57.106-.696-.024-1.387-.059-2.086-.059H89.402c-2.785 0-5.547.223-8.265.621 9.66-28.832 59.742-52.554 126.16-58.261 5.515-.473 9.605-5.328 9.133-10.844-.477-5.52-5.332-9.617-10.848-9.133-41.086 3.531-76.707 13.383-103.012 28.488-26.933 15.465-42.16 35.875-43.133 57.688a56.752 56.752 0 0 0-26.195 56.895l2.145 13.96C15.113 161.96 0 180.242 0 202v12.465c0 25.488 20.738 46.222 46.223 46.222h5.093l15.008 97.625a181.303 181.303 0 0 0 61.11 110 181.309 181.309 0 0 0 118.007 43.692c88.043 0 163.09-62.926 178.446-149.617l18.011-101.7h6.188c25.484 0 46.223-20.734 46.223-46.222V202c0-21.3-14.485-39.27-34.114-44.605zM46.223 240.633c-14.43 0-26.172-11.738-26.172-26.172v-12.465c0-11.5 7.453-21.289 17.781-24.793l9.75 63.43zM245.44 491.949c-80.132 0-147.125-57.484-159.3-136.687l-33.078-215.2a36.716 36.716 0 0 1 8.437-29.527 36.718 36.718 0 0 1 27.902-12.824h317.149a36.676 36.676 0 0 1 28.176 13.144 36.674 36.674 0 0 1 8.027 30.036l-3.61 20.386a10.011 10.011 0 0 0-.93 2.762l-15.128 84.863a9.967 9.967 0 0 0-.04 3.266l-18.901 106.719c-13.66 77.101-80.403 133.062-158.704 133.062zm228.813-277.484c0 14.43-11.738 26.172-26.172 26.172h-2.633l11.223-63.348c10.223 3.563 17.582 13.285 17.582 24.707zm0 0"/></symbol>
  <symbol id="repair_8" viewBox="0 0 512 512" fill="currentColor"><path d="M452.017 0H161.035v15.208h290.982c9.783 0 17.743 7.96 17.743 17.743v363.198H42.24V32.951c0-9.783 7.96-17.743 17.743-17.743h80.774V0H59.983c-18.169 0-32.95 14.781-32.95 32.951v442.64h27.033V512h403.87v-36.409h27.033V32.951C484.967 14.781 470.186 0 452.017 0zm17.743 460.309h-27.033v.074h-315.93v15.208h315.93v21.201H69.273v-21.201h39.451v-15.208H69.273v-.074H42.24v-48.952h427.52v48.952z"/><path d="M439.347 98.852h15.208v79.76h-15.208zM439.347 198.889h15.208v184.594h-15.208zM105.299 130.788V115.58H67.591v180.248l37.759-.255-.102-15.208-22.449.152V130.788zM176.681 213.283h60.959l-20.459 20.459-27.716.001v15.208l23.261-.001.001 23.263h15.208v-27.717l20.461-20.461.001 60.965h15.208l-.001-60.963 20.462 20.459v27.717h15.208v-23.262l23.259-.001v-15.208l-27.714.001-20.461-20.46h60.962v-15.208h-60.963l20.462-20.461 27.716.001v-15.208l-23.262-.001v-23.263h-15.208v27.717l-20.461 20.46v-60.96h-15.208v60.962l-20.461-20.46-.001-27.719h-15.208l.001 23.264-23.261-.003-.002 15.208 27.718.004 20.461 20.459h-60.962zM108.514 422.912h15.208v25.906h-15.208zM138.94 422.912h15.208v25.906H138.94zM169.355 422.912h15.208v25.906h-15.208zM327.437 422.912h15.208v25.906h-15.208zM357.853 422.912h15.208v25.906h-15.208zM388.268 422.912h15.208v25.906h-15.208z"/></symbol>
  <symbol id="feedback" viewBox="0 0 511.999 511.999"><path d="M469.592 161.546s-84.75-77.878-127.125-121.398S255.999.064 255.999.064s-44.093-3.437-86.468 40.084S42.406 161.546 42.406 161.546L32.099 199.34v312.659H479.9V199.34l-10.308-37.794z" fill="#d89932"/><path d="M443.251 346.352c0 7.18-5.82 13-13 13H90.909c-7.18 0-13-5.82-13-13V108.12c0-7.18 5.82-13 13-13h339.342c7.18 0 13 5.82 13 13v238.232z" fill="#e2e5e7"/><path opacity=".07" fill="#2d404e" d="M189.383 330.665l15.647-.763L71.42 204.685l-39.321-5.345zM322.521 330.665l-15.647-.763 133.61-125.217 39.321-5.345z"/><path fill="#f2b643" d="M32.099 199.34v312.658l157.412-181.526L69.893 207.739zM479.805 199.34v312.658L322.394 330.472l119.617-122.733z"/><path opacity=".54" fill="#d89932" d="M32.099 511.998v-37.793l151.985-149.301 5.427 5.568zM479.805 511.998v-37.793L327.821 324.904l-5.427 5.568z"/><path d="M468.685 475.922S347.826 349.371 336.889 339.064c-10.938-10.307-19.688-9.161-19.688-9.161H194.702s-8.75-1.146-19.688 9.161C164.076 349.372 43.219 475.922 43.219 475.922l-10.392 36.076h446.249l-10.391-36.076z" fill="#f2b643"/><g fill="#d1d5d5"><path d="M132.133 226.84l29.855-55.562 12.741 30.735s-.289-13.965 9.309-13.743 16.927 38.57 16.927 38.57h-68.832z"/><circle cx="180.515" cy="177.364" r="6.087"/></g><path d="M373.652 183.307a5.727 5.727 0 0 1-5.727 5.727H255.376a5.727 5.727 0 0 1-5.727-5.727v-.216a5.728 5.728 0 0 1 5.727-5.727h112.549a5.727 5.727 0 0 1 5.727 5.727v.216zM373.652 205.282a5.727 5.727 0 0 1-5.727 5.727H255.376a5.727 5.727 0 0 1-5.727-5.727v-.216a5.728 5.728 0 0 1 5.727-5.727h112.549a5.727 5.727 0 0 1 5.727 5.727v.216zM373.652 227.259a5.726 5.726 0 0 1-5.727 5.726H255.376a5.726 5.726 0 0 1-5.727-5.726v-.216a5.727 5.727 0 0 1 5.727-5.727h112.549a5.726 5.726 0 0 1 5.727 5.727v.216z" fill="#d1d5d5"/><path fill="#df584c" d="M166.55 95.12l-13.923 25.578h22.102l13.923-25.578z"/><path fill="#e2e5e7" d="M144.447 95.12l-13.922 25.578h22.102L166.55 95.12zM188.652 95.12l-13.923 25.578h22.103l13.922-25.578zM232.857 95.12l-13.923 25.578h22.103l13.922-25.578z"/><path fill="#df584c" d="M77.91 95.12v25.578h8.41l13.923-25.578z"/><path fill="#e2e5e7" d="M100.243 95.12L86.32 120.698h22.102l13.923-25.578zM365.471 95.12l-13.922 25.578h22.103l13.922-25.578zM409.676 95.12l-13.923 25.578h22.103l13.923-25.578z"/><path fill="#df584c" d="M254.959 95.12l-13.922 25.578h22.102l13.923-25.578zM431.779 95.12l-13.923 25.578h25.395V95.12zM343.369 95.12l-13.922 25.578h22.102l13.922-25.578z"/><path fill="#e2e5e7" d="M277.062 95.12l-13.923 25.578h22.103l13.922-25.578z"/><g fill="#2d404e"><path d="M210.754 95.12l-13.922 25.578h22.102l13.923-25.578zM122.345 95.12l-13.923 25.578h22.103l13.922-25.578zM387.574 95.12l-13.922 25.578h22.101l13.923-25.578zM299.164 95.12l-13.922 25.578h22.102l13.922-25.578z"/></g><path fill="#e2e5e7" d="M321.266 95.12l-13.922 25.578h22.103l13.922-25.578z"/></symbol>











</svg>
